<svg width="183" height="61" viewBox="0 0 183 61" fill="none" xmlns="http://www.w3.org/2000/svg">
<rect width="182.812" height="60.9375" rx="8" fill="white"/>
<path d="M26.8189 29.5717L10.2969 47.1452C10.2975 47.1488 10.2987 47.1519 10.2994 47.1555C10.806 49.0636 12.5452 50.4688 14.6094 50.4688C15.4345 50.4688 16.2092 50.2452 16.8736 49.8527L16.9263 49.8218L35.524 39.0675L26.8189 29.5717Z" fill="#EA4335"/>
<path d="M43.5359 26.5791L43.5201 26.5682L35.491 21.9038L26.4453 29.9702L35.5225 39.0654L43.5093 34.4474C44.9095 33.6898 45.86 32.2106 45.86 30.5047C45.86 28.8111 44.9222 27.3391 43.5359 26.5791Z" fill="#FBBC04"/>
<path d="M10.2961 13.791C10.1967 14.158 10.1445 14.5424 10.1445 14.9416V45.9946C10.1445 46.3931 10.1961 46.7788 10.2967 47.1445L27.3873 30.0207L10.2961 13.791Z" fill="#4285F4"/>
<path d="M26.9413 30.4678L35.4931 21.9004L16.9165 11.1072C16.2413 10.7019 15.4533 10.468 14.61 10.468C12.5459 10.468 10.8043 11.8756 10.2975 13.7861C10.2969 13.788 10.2969 13.7892 10.2969 13.7909L26.9413 30.4678Z" fill="#34A853"/>
<path d="M61.068 23.6928C60.1347 23.6928 59.3367 23.4688 58.674 23.0207C58.0113 22.5727 57.5027 21.9614 57.148 21.1867C56.8027 20.4027 56.63 19.5114 56.63 18.5127C56.63 17.5141 56.8073 16.6227 57.162 15.8387C57.5167 15.0547 58.0253 14.4387 58.688 13.9907C59.36 13.5334 60.1627 13.3047 61.096 13.3047C61.8893 13.3047 62.5567 13.4494 63.098 13.7387C63.6487 14.0281 64.0827 14.4201 64.4 14.9147C64.7267 15.4094 64.9507 15.9647 65.072 16.5807L63.812 16.6647C63.6907 16.0207 63.42 15.4981 63 15.0967C62.58 14.6861 61.9453 14.4807 61.096 14.4807C60.34 14.4807 59.724 14.6674 59.248 15.0407C58.7813 15.4141 58.436 15.9087 58.212 16.5247C57.9973 17.1314 57.89 17.7941 57.89 18.5127C57.89 19.2687 58.002 19.9501 58.226 20.5567C58.45 21.1541 58.8 21.6301 59.276 21.9847C59.752 22.3394 60.3587 22.5167 61.096 22.5167C61.684 22.5167 62.1927 22.3861 62.622 22.1247C63.0513 21.8541 63.3827 21.4947 63.616 21.0467C63.8493 20.5987 63.9707 20.1134 63.98 19.5907H61.124V18.4427H65.1V23.4688H64.204L64.12 21.1727L64.288 21.3687C64.176 21.8167 63.9613 22.2181 63.644 22.5727C63.3267 22.9181 62.944 23.1934 62.496 23.3987C62.0573 23.5948 61.5813 23.6928 61.068 23.6928ZM67.0907 23.4688V13.5287H73.3347V14.7047H68.2947V17.9107H73.1667V19.0587H68.2947V22.2927H73.4467V23.4688H67.0907ZM77.5003 23.4688V14.7047H74.4063V13.5287H81.7983V14.7047H78.7043V23.4688H77.5003ZM86.7509 23.4688V13.5287H87.9549V23.4688H86.7509ZM91.9378 23.4688V14.7047H88.8438V13.5287H96.2358V14.7047H93.1418V23.4688H91.9378ZM105.066 23.6928C104.124 23.6928 103.312 23.4874 102.63 23.0767C101.958 22.6567 101.44 22.0594 101.076 21.2847C100.712 20.5101 100.53 19.5861 100.53 18.5127C100.53 17.4394 100.712 16.5154 101.076 15.7407C101.44 14.9567 101.958 14.3547 102.63 13.9347C103.312 13.5147 104.124 13.3047 105.066 13.3047C106.018 13.3047 106.83 13.5147 107.502 13.9347C108.184 14.3547 108.706 14.9567 109.07 15.7407C109.434 16.5154 109.616 17.4394 109.616 18.5127C109.616 19.5861 109.434 20.5101 109.07 21.2847C108.706 22.0594 108.184 22.6567 107.502 23.0767C106.83 23.4874 106.018 23.6928 105.066 23.6928ZM105.066 22.5167C105.757 22.5167 106.345 22.3581 106.83 22.0407C107.325 21.7234 107.703 21.2661 107.964 20.6687C108.226 20.0714 108.356 19.3528 108.356 18.5127C108.356 17.6727 108.226 16.9541 107.964 16.3567C107.703 15.7501 107.325 15.2881 106.83 14.9707C106.345 14.6441 105.757 14.4807 105.066 14.4807C104.385 14.4807 103.797 14.6441 103.302 14.9707C102.817 15.2881 102.444 15.7501 102.182 16.3567C101.921 16.9541 101.79 17.6727 101.79 18.5127C101.79 19.3528 101.921 20.0714 102.182 20.6687C102.444 21.2661 102.817 21.7234 103.302 22.0407C103.797 22.3581 104.385 22.5167 105.066 22.5167ZM111.347 23.4688V13.5287H113.055L117.969 22.2647V13.5287H119.173V23.4688H117.381L112.551 14.9007V23.4688H111.347Z" fill="#010211"/>
<path d="M63.34 46.7888C61.9933 46.7888 60.8333 46.4754 59.86 45.8487C58.8867 45.2087 58.14 44.3354 57.62 43.2287C57.1133 42.1221 56.86 40.8421 56.86 39.3887C56.86 37.9621 57.12 36.6887 57.64 35.5687C58.1733 34.4487 58.9333 33.5687 59.92 32.9287C60.9067 32.2754 62.0933 31.9487 63.48 31.9487C64.68 31.9487 65.6867 32.1554 66.5 32.5687C67.3267 32.9821 67.9867 33.5554 68.48 34.2887C68.9733 35.0221 69.32 35.8687 69.52 36.8287L66.8 36.9687C66.6533 36.1287 66.32 35.4621 65.8 34.9687C65.2933 34.4621 64.5267 34.2087 63.5 34.2087C62.5933 34.2087 61.8467 34.4421 61.26 34.9087C60.6867 35.3754 60.2533 36.0021 59.96 36.7887C59.68 37.5621 59.54 38.4287 59.54 39.3887C59.54 40.3754 59.68 41.2554 59.96 42.0287C60.24 42.8021 60.6733 43.4154 61.26 43.8687C61.86 44.3087 62.6133 44.5287 63.52 44.5287C64.2267 44.5287 64.8333 44.3821 65.34 44.0887C65.8467 43.7954 66.2467 43.3954 66.54 42.8887C66.8333 42.3687 66.9933 41.7954 67.02 41.1687H63.52V39.1487H69.56V46.4688H67.88L67.72 43.3487L68.04 43.5487C67.8933 44.1887 67.5933 44.7554 67.14 45.2487C66.7 45.7287 66.1467 46.1087 65.48 46.3887C64.8267 46.6554 64.1133 46.7888 63.34 46.7888ZM76.747 46.7088C75.6937 46.7088 74.767 46.4821 73.967 46.0287C73.1804 45.5621 72.567 44.9087 72.127 44.0687C71.7004 43.2287 71.487 42.2487 71.487 41.1287C71.487 39.9954 71.7004 39.0154 72.127 38.1887C72.567 37.3487 73.1804 36.7021 73.967 36.2487C74.767 35.7821 75.6937 35.5487 76.747 35.5487C77.8004 35.5487 78.7204 35.7821 79.507 36.2487C80.2937 36.7021 80.9004 37.3487 81.327 38.1887C81.767 39.0154 81.987 39.9954 81.987 41.1287C81.987 42.2487 81.767 43.2287 81.327 44.0687C80.9004 44.9087 80.2937 45.5621 79.507 46.0287C78.7204 46.4821 77.8004 46.7088 76.747 46.7088ZM76.747 44.6287C77.5737 44.6287 78.207 44.3221 78.647 43.7087C79.1004 43.0954 79.327 42.2354 79.327 41.1287C79.327 40.0354 79.1004 39.1821 78.647 38.5687C78.207 37.9421 77.5737 37.6287 76.747 37.6287C75.9204 37.6287 75.2804 37.9421 74.827 38.5687C74.3737 39.1821 74.147 40.0354 74.147 41.1287C74.147 42.2354 74.3737 43.0954 74.827 43.7087C75.2804 44.3221 75.9204 44.6287 76.747 44.6287ZM88.6025 46.7088C87.5492 46.7088 86.6225 46.4821 85.8225 46.0287C85.0358 45.5621 84.4225 44.9087 83.9825 44.0687C83.5558 43.2287 83.3425 42.2487 83.3425 41.1287C83.3425 39.9954 83.5558 39.0154 83.9825 38.1887C84.4225 37.3487 85.0358 36.7021 85.8225 36.2487C86.6225 35.7821 87.5492 35.5487 88.6025 35.5487C89.6558 35.5487 90.5758 35.7821 91.3625 36.2487C92.1492 36.7021 92.7558 37.3487 93.1825 38.1887C93.6225 39.0154 93.8425 39.9954 93.8425 41.1287C93.8425 42.2487 93.6225 43.2287 93.1825 44.0687C92.7558 44.9087 92.1492 45.5621 91.3625 46.0287C90.5758 46.4821 89.6558 46.7088 88.6025 46.7088ZM88.6025 44.6287C89.4292 44.6287 90.0625 44.3221 90.5025 43.7087C90.9558 43.0954 91.1825 42.2354 91.1825 41.1287C91.1825 40.0354 90.9558 39.1821 90.5025 38.5687C90.0625 37.9421 89.4292 37.6287 88.6025 37.6287C87.7758 37.6287 87.1358 37.9421 86.6825 38.5687C86.2292 39.1821 86.0025 40.0354 86.0025 41.1287C86.0025 42.2354 86.2292 43.0954 86.6825 43.7087C87.1358 44.3221 87.7758 44.6287 88.6025 44.6287ZM100.378 49.7088C99.4446 49.7088 98.6446 49.5821 97.978 49.3288C97.3113 49.0754 96.7713 48.7154 96.358 48.2488C95.958 47.7954 95.678 47.2688 95.518 46.6688L98.158 46.4888C98.2913 46.8888 98.518 47.2021 98.838 47.4288C99.1713 47.6554 99.6846 47.7688 100.378 47.7688C101.165 47.7688 101.771 47.5888 102.198 47.2288C102.625 46.8821 102.838 46.3354 102.838 45.5887V44.2287C102.585 44.7487 102.178 45.1687 101.618 45.4887C101.058 45.7954 100.431 45.9487 99.738 45.9487C98.858 45.9487 98.0713 45.7354 97.378 45.3087C96.698 44.8687 96.1646 44.2621 95.778 43.4887C95.3913 42.7021 95.198 41.7954 95.198 40.7687C95.198 39.7421 95.3846 38.8421 95.758 38.0687C96.1446 37.2821 96.678 36.6687 97.358 36.2287C98.038 35.7754 98.818 35.5487 99.698 35.5487C100.471 35.5487 101.138 35.7221 101.698 36.0687C102.258 36.4154 102.665 36.8754 102.918 37.4487V35.7887H105.418V45.5287C105.418 46.4354 105.205 47.2021 104.778 47.8288C104.365 48.4554 103.778 48.9221 103.018 49.2288C102.271 49.5488 101.391 49.7088 100.378 49.7088ZM100.338 43.9487C101.098 43.9487 101.705 43.6687 102.158 43.1087C102.611 42.5354 102.845 41.7487 102.858 40.7487C102.871 40.0821 102.771 39.5154 102.558 39.0487C102.358 38.5687 102.065 38.2021 101.678 37.9487C101.305 37.6821 100.858 37.5487 100.338 37.5487C99.5513 37.5487 98.938 37.8421 98.498 38.4287C98.0713 39.0021 97.858 39.7754 97.858 40.7487C97.858 41.7221 98.078 42.5021 98.518 43.0887C98.9713 43.6621 99.578 43.9487 100.338 43.9487ZM110.78 46.4688C110.007 46.4688 109.387 46.2687 108.92 45.8687C108.454 45.4687 108.22 44.8287 108.22 43.9487V32.2687H110.78V43.6887C110.78 43.9554 110.847 44.1554 110.98 44.2887C111.127 44.4221 111.327 44.4887 111.58 44.4887H112.36V46.4688H110.78ZM118.622 46.7088C117.555 46.7088 116.628 46.4821 115.842 46.0287C115.055 45.5621 114.448 44.9087 114.022 44.0687C113.595 43.2287 113.382 42.2487 113.382 41.1287C113.382 40.0087 113.595 39.0354 114.022 38.2087C114.448 37.3687 115.048 36.7154 115.822 36.2487C116.608 35.7821 117.522 35.5487 118.562 35.5487C119.575 35.5487 120.462 35.7754 121.222 36.2287C121.995 36.6821 122.588 37.3354 123.002 38.1887C123.415 39.0421 123.622 40.0687 123.622 41.2687V41.8487H116.042C116.095 42.7821 116.348 43.4887 116.802 43.9688C117.268 44.4354 117.882 44.6687 118.642 44.6687C119.215 44.6687 119.688 44.5421 120.062 44.2887C120.448 44.0221 120.715 43.6554 120.862 43.1887L123.482 43.3487C123.188 44.3887 122.608 45.2087 121.742 45.8088C120.888 46.4088 119.848 46.7088 118.622 46.7088ZM116.042 40.1287H120.982C120.928 39.2621 120.682 38.6221 120.242 38.2087C119.802 37.7821 119.242 37.5687 118.562 37.5687C117.882 37.5687 117.315 37.7887 116.862 38.2287C116.422 38.6687 116.148 39.3021 116.042 40.1287ZM130.745 46.4688V32.2687H136.245C137.911 32.2687 139.211 32.6687 140.145 33.4687C141.078 34.2687 141.545 35.3754 141.545 36.7887C141.545 37.7354 141.331 38.5554 140.905 39.2487C140.478 39.9287 139.871 40.4487 139.085 40.8087C138.298 41.1687 137.351 41.3487 136.245 41.3487H133.345V46.4688H130.745ZM133.345 39.0887H136.125C137.005 39.0887 137.678 38.8954 138.145 38.5087C138.625 38.1221 138.865 37.5487 138.865 36.7887C138.865 36.0421 138.625 35.4821 138.145 35.1087C137.678 34.7221 137.005 34.5287 136.125 34.5287H133.345V39.0887ZM146.386 46.4688C145.612 46.4688 144.992 46.2687 144.526 45.8687C144.059 45.4687 143.826 44.8287 143.826 43.9487V32.2687H146.386V43.6887C146.386 43.9554 146.452 44.1554 146.586 44.2887C146.732 44.4221 146.932 44.4887 147.186 44.4887H147.966V46.4688H146.386ZM152.824 46.7088C151.704 46.7088 150.804 46.4554 150.124 45.9487C149.444 45.4287 149.104 44.7087 149.104 43.7887C149.104 42.8687 149.391 42.1487 149.964 41.6287C150.538 41.1087 151.411 40.7354 152.584 40.5087L156.124 39.8087C156.124 39.0487 155.951 38.4821 155.604 38.1087C155.258 37.7221 154.744 37.5287 154.064 37.5287C153.451 37.5287 152.964 37.6754 152.604 37.9687C152.258 38.2487 152.018 38.6554 151.884 39.1887L149.284 39.0687C149.498 37.9354 150.018 37.0687 150.844 36.4688C151.671 35.8554 152.744 35.5487 154.064 35.5487C155.584 35.5487 156.731 35.9354 157.504 36.7087C158.291 37.4687 158.684 38.5621 158.684 39.9887V43.8687C158.684 44.1487 158.731 44.3421 158.824 44.4487C158.931 44.5554 159.084 44.6087 159.284 44.6087H159.624V46.4688C159.544 46.4954 159.411 46.5154 159.224 46.5288C159.051 46.5421 158.871 46.5488 158.684 46.5488C158.244 46.5488 157.851 46.4821 157.504 46.3487C157.158 46.2021 156.891 45.9554 156.704 45.6087C156.518 45.2487 156.424 44.7621 156.424 44.1487L156.644 44.3087C156.538 44.7754 156.304 45.1954 155.944 45.5687C155.598 45.9287 155.158 46.2087 154.624 46.4087C154.091 46.6088 153.491 46.7088 152.824 46.7088ZM153.344 44.8487C153.918 44.8487 154.411 44.7354 154.824 44.5087C155.238 44.2821 155.558 43.9687 155.784 43.5687C156.011 43.1687 156.124 42.6954 156.124 42.1487V41.5487L153.364 42.1087C152.791 42.2287 152.378 42.4087 152.124 42.6487C151.884 42.8754 151.764 43.1754 151.764 43.5487C151.764 43.9621 151.898 44.2821 152.164 44.5087C152.444 44.7354 152.838 44.8487 153.344 44.8487ZM161.48 49.4688V47.4888H162.84C163.187 47.4888 163.44 47.4354 163.6 47.3288C163.774 47.2221 163.907 47.0421 164 46.7888L164.3 46.0487H163.56L159.74 35.7887H162.4L165.08 43.6487L167.64 35.7887H170.3L166.12 47.5888C165.88 48.2554 165.54 48.7354 165.1 49.0288C164.674 49.3221 164.074 49.4688 163.3 49.4688H161.48Z" fill="#010211"/>
</svg>
