<svg width="72" height="72" viewBox="0 0 72 72" fill="none" xmlns="http://www.w3.org/2000/svg">
<g clip-path="url(#clip0_4877_20892)">
<path d="M64 0.5H8C3.86 0.5 0.5 3.86 0.5 8V64C0.5 68.14 3.86 71.5 8 71.5H64C68.14 71.5 71.5 68.14 71.5 64V8C71.5 3.86 68.14 0.5 64 0.5ZM37.19 38.89C35.54 38.96 34.1 39.11 32.06 39.63C32.01 39.65 31.95 39.66 31.89 39.66C31.59 39.66 31.31 39.45 31.23 39.14C31.13 38.77 31.35 38.4 31.72 38.3C33.87 37.75 35.39 37.59 37.14 37.52C37.51 37.51 37.83 37.8 37.85 38.18C37.87 38.56 37.57 38.88 37.19 38.89Z" fill="#F9F9F9"/>
<path d="M64 0.5H8C3.86 0.5 0.5 3.86 0.5 8V64C0.5 68.14 3.86 71.5 8 71.5H64C68.14 71.5 71.5 68.14 71.5 64V8C71.5 3.86 68.14 0.5 64 0.5ZM37.19 38.89C35.54 38.96 34.1 39.11 32.06 39.63C32.01 39.65 31.95 39.66 31.89 39.66C31.59 39.66 31.31 39.45 31.23 39.14C31.13 38.77 31.35 38.4 31.72 38.3C33.87 37.75 35.39 37.59 37.14 37.52C37.51 37.51 37.83 37.8 37.85 38.18C37.87 38.56 37.57 38.88 37.19 38.89Z" stroke="#EDEDED"/>
<path d="M37.9401 14.6904C28.0801 14.6904 20.0601 22.7104 20.0601 32.5704C20.0601 33.2304 20.1001 33.8904 20.1701 34.5504L21.8701 34.6004C21.7701 34.5904 21.6601 34.5804 21.5601 34.5804C21.5001 34.1404 21.4701 33.7004 21.4501 33.2604H27.1901C27.2201 33.9904 27.2801 34.7204 27.3801 35.4404L28.8301 35.8304C28.6901 34.9804 28.6001 34.1204 28.5701 33.2604H37.2601V34.5704L38.6301 34.5404V33.2604H47.3201C47.2101 36.2104 46.4601 39.0304 45.1401 41.5704C44.3501 41.3604 43.5301 41.1904 42.6801 41.0504V42.4404C43.2801 42.5504 43.8601 42.6704 44.4301 42.8104C43.9101 43.6404 43.3301 44.4404 42.6801 45.2004V47.2204C43.8901 46.0004 44.9301 44.6504 45.8001 43.1904C47.0501 43.5804 48.2001 44.0704 49.2301 44.6404C47.4101 46.3404 45.1901 47.6504 42.6801 48.3904V49.8204C46.3001 48.8304 49.5701 46.6704 51.9301 43.7104C54.4801 40.5204 55.8301 36.6704 55.8301 32.5704C55.8301 22.7104 47.8101 14.6904 37.9401 14.6904ZM34.9901 16.3304C33.0301 17.8904 31.3701 19.8004 30.0901 21.9604C28.8701 21.5704 27.7201 21.0904 26.6801 20.5104C28.9501 18.3904 31.8101 16.9004 34.9901 16.3304ZM27.1901 31.8804H21.4501C21.6101 27.9104 23.1901 24.3004 25.6801 21.5304C26.8101 22.1904 28.0701 22.7404 29.4201 23.1804C28.0501 25.8704 27.2901 28.8504 27.1901 31.8804ZM37.2601 31.8804H28.5701C28.6601 28.9204 29.4201 26.1004 30.7401 23.5704C32.8101 24.1104 35.0201 24.4004 37.2601 24.4504V31.8804ZM37.2601 23.1104C35.2701 23.0604 33.2901 22.8004 31.4401 22.3404C32.8901 20.0004 34.8601 17.9504 37.2601 16.3704V23.1104ZM54.4401 31.8804H48.7001C48.6001 28.8504 47.8401 25.8704 46.4701 23.1804C47.8201 22.7404 49.0701 22.1904 50.2101 21.5304C52.7001 24.3004 54.2801 27.9104 54.4401 31.8804ZM49.2101 20.5104C48.1701 21.0904 47.0201 21.5704 45.8001 21.9604C44.5201 19.8004 42.8501 17.8904 40.9001 16.3304C44.0801 16.9004 46.9401 18.3904 49.2101 20.5104ZM38.6301 16.3704C41.0301 17.9504 42.9901 20.0004 44.4501 22.3404C42.6001 22.8004 40.6201 23.0604 38.6301 23.1104V16.3704ZM38.6301 31.8804V24.4504C40.8601 24.4004 43.0801 24.1104 45.1501 23.5704C46.4701 26.1004 47.2301 28.9204 47.3201 31.8804H38.6301ZM50.2301 43.6304C49.1101 42.9704 47.8501 42.4104 46.4701 41.9604C46.6901 41.5404 46.8901 41.1004 47.0801 40.6604C48.0701 38.3104 48.6101 35.8204 48.7001 33.2604H54.4401C54.2801 37.2104 52.7401 40.8404 50.2301 43.6304Z" fill="#010211"/>
<path d="M41.9899 36.01H40.3199V35.23C40.3199 34.85 40.0099 34.54 39.6299 34.54C39.2799 34.54 38.9499 34.54 38.6299 34.55L37.2599 34.57C34.1499 34.71 32.6399 35.12 30.1099 35.8C29.8899 35.86 29.6599 35.92 29.4299 35.99C29.3099 35.96 29.1999 35.93 29.0899 35.9L28.8299 35.83L27.3799 35.44L27.2999 35.42C25.6699 35 24.2999 34.73 22.1699 34.61H21.8699L20.1699 34.55C19.8699 34.54 19.5499 34.54 19.2199 34.54C18.8399 34.54 18.5299 34.85 18.5299 35.23V36.01H16.8599C16.4799 36.01 16.1699 36.32 16.1699 36.7V54.78C16.1699 55.16 16.4799 55.47 16.8599 55.47H26.9099V55.69C26.9099 56.58 27.6399 57.31 28.5299 57.31H30.3399C31.2299 57.31 31.9599 56.58 31.9599 55.69V55.47H41.9899C42.3699 55.47 42.6799 55.16 42.6799 54.78V36.7C42.6799 36.32 42.3699 36.01 41.9899 36.01ZM17.5499 54.09V37.39H18.5299V52.72C18.5299 53.1 18.8399 53.41 19.2199 53.41C21.9699 53.41 24.2399 53.63 26.0899 54.09H17.5499ZM19.9099 52.04V35.92C24.0399 35.95 25.4599 36.34 28.3899 37.13C28.4999 37.16 28.6199 37.19 28.7399 37.23V53.53C26.5699 52.58 23.6599 52.09 19.9099 52.04ZM30.5899 55.69C30.5899 55.82 30.4699 55.94 30.3399 55.94H28.5299C28.3999 55.94 28.2899 55.82 28.2899 55.69V54.84C28.5699 54.97 28.8299 55.1 29.0799 55.25C29.1899 55.31 29.3099 55.34 29.4299 55.34C29.5399 55.34 29.6599 55.31 29.7699 55.25C30.0299 55.1 30.2999 54.96 30.5899 54.83V55.69ZM30.1099 53.54V37.23C30.2299 37.19 30.3499 37.16 30.4699 37.13C33.3899 36.34 34.8099 35.95 38.9399 35.92V52.04C35.1899 52.09 32.2799 52.58 30.1099 53.54ZM41.2999 54.09H32.7599C34.6099 53.63 36.8799 53.41 39.6299 53.41C40.0099 53.41 40.3199 53.1 40.3199 52.72V37.39H41.2999V54.09Z" fill="#5A5BB5"/>
<path d="M37.8502 38.1798C37.8702 38.5598 37.5702 38.8798 37.1902 38.8898C35.5402 38.9598 34.1002 39.1098 32.0602 39.6298C32.0102 39.6498 31.9502 39.6598 31.8902 39.6598C31.5902 39.6598 31.3102 39.4498 31.2302 39.1398C31.1302 38.7698 31.3502 38.3998 31.7202 38.2998C33.8702 37.7498 35.3902 37.5898 37.1402 37.5198C37.5102 37.5098 37.8302 37.7998 37.8502 38.1798Z" fill="#5A5BB5"/>
<path d="M37.8502 41.0904C37.8702 41.4704 37.5702 41.7904 37.1902 41.8104C35.2302 41.9004 33.7502 42.1204 32.0702 42.5704C32.0102 42.5904 31.9502 42.5904 31.8902 42.5904C31.5902 42.5904 31.3102 42.3904 31.2302 42.0904C31.1302 41.7204 31.3502 41.3404 31.7102 41.2404C33.4902 40.7604 35.0602 40.5304 37.1302 40.4404C37.5102 40.4204 37.8302 40.7104 37.8502 41.0904Z" fill="#5A5BB5"/>
<path d="M37.8499 44.0096C37.8699 44.3896 37.5799 44.7096 37.1999 44.7296C35.2099 44.8196 33.6799 45.0596 32.0799 45.4996C32.0199 45.5196 31.9499 45.5296 31.8899 45.5296C31.5899 45.5296 31.3099 45.3296 31.2299 45.0296C31.1299 44.6596 31.3399 44.2796 31.7099 44.1796C33.4099 43.6996 35.0299 43.4596 37.1299 43.3496C37.5099 43.3296 37.8299 43.6296 37.8499 44.0096Z" fill="#5A5BB5"/>
<path d="M37.85 46.9195C37.87 47.2995 37.58 47.6195 37.2 47.6395C35.19 47.7495 33.62 47.9895 32.08 48.4295C32.02 48.4495 31.95 48.4595 31.89 48.4595C31.59 48.4595 31.32 48.2595 31.23 47.9595C31.13 47.5995 31.34 47.2195 31.7 47.1095C33.34 46.6395 35.01 46.3795 37.13 46.2695C37.51 46.2495 37.83 46.5395 37.85 46.9195Z" fill="#5A5BB5"/>
<path d="M37.8502 49.8296C37.8702 50.2096 37.5802 50.5396 37.2002 50.5596C35.2202 50.6696 33.5402 50.9296 32.0902 51.3596C32.0202 51.3796 31.9602 51.3896 31.8902 51.3896C31.5902 51.3896 31.3202 51.1896 31.2302 50.8896C31.1302 50.5296 31.3302 50.1396 31.7002 50.0396C33.2602 49.5796 35.0302 49.2996 37.1302 49.1896C37.5102 49.1596 37.8302 49.4496 37.8502 49.8296Z" fill="#5A5BB5"/>
<path d="M27.62 50.8896C27.53 51.1896 27.26 51.3896 26.96 51.3896C26.89 51.3896 26.83 51.3796 26.76 51.3596C25.31 50.9296 23.64 50.6696 21.65 50.5596C21.27 50.5396 20.98 50.2096 21 49.8296C21.02 49.4496 21.35 49.1596 21.73 49.1896C23.82 49.2996 25.59 49.5796 27.15 50.0396C27.52 50.1396 27.73 50.5296 27.62 50.8896Z" fill="#5A5BB5"/>
<path d="M27.62 47.9595C27.53 48.2595 27.26 48.4595 26.96 48.4595C26.9 48.4595 26.83 48.4595 26.77 48.4295C25.24 47.9895 23.66 47.7495 21.65 47.6395C21.27 47.6195 20.98 47.2995 21 46.9195C21.02 46.5395 21.35 46.2495 21.72 46.2695C23.84 46.3795 25.51 46.6395 27.15 47.1095C27.51 47.2195 27.72 47.5995 27.62 47.9595Z" fill="#5A5BB5"/>
<path d="M27.62 45.0296C27.54 45.3296 27.26 45.5296 26.96 45.5296C26.9 45.5296 26.84 45.5296 26.77 45.4996C25.17 45.0596 23.64 44.8196 21.65 44.7296C21.27 44.7096 20.98 44.3896 21 44.0096C21.02 43.6296 21.34 43.3296 21.72 43.3496C23.82 43.4596 25.44 43.6996 27.14 44.1796C27.51 44.2796 27.72 44.6596 27.62 45.0296Z" fill="#5A5BB5"/>
<path d="M27.62 42.0904C27.54 42.3904 27.26 42.6004 26.96 42.6004C26.9 42.6004 26.84 42.5904 26.78 42.5704C25.1 42.1204 23.62 41.9004 21.66 41.8104C21.28 41.7904 20.98 41.4704 21 41.0904C21.02 40.7104 21.34 40.4204 21.72 40.4404C23.79 40.5304 25.36 40.7604 27.14 41.2404C27.5 41.3404 27.72 41.7204 27.62 42.0904Z" fill="#5A5BB5"/>
<path d="M27.62 39.1395C27.54 39.4495 27.27 39.6595 26.96 39.6595C26.9 39.6595 26.84 39.6495 26.79 39.6295C24.75 39.1095 23.32 38.9595 21.66 38.8895C21.28 38.8795 20.98 38.5595 21 38.1795C21.02 37.8095 21.32 37.5195 21.69 37.5195H21.72C23.46 37.5895 24.98 37.7495 27.13 38.2995C27.5 38.3995 27.72 38.7695 27.62 39.1395Z" fill="#5A5BB5"/>
</g>
<defs>
<clipPath id="clip0_4877_20892">
<rect width="72" height="72" fill="white"/>
</clipPath>
</defs>
</svg>
