<svg width="72" height="72" viewBox="0 0 72 72" fill="none" xmlns="http://www.w3.org/2000/svg">
<g clip-path="url(#clip0_4877_20908)">
<path d="M64 0.5H8C3.85786 0.5 0.5 3.85786 0.5 8V64C0.5 68.1421 3.85786 71.5 8 71.5H64C68.1421 71.5 71.5 68.1421 71.5 64V8C71.5 3.85786 68.1421 0.5 64 0.5Z" fill="#F9F9F9"/>
<path d="M64 0.5H8C3.85786 0.5 0.5 3.85786 0.5 8V64C0.5 68.1421 3.85786 71.5 8 71.5H64C68.1421 71.5 71.5 68.1421 71.5 64V8C71.5 3.85786 68.1421 0.5 64 0.5Z" stroke="#EDEDED"/>
<path fill-rule="evenodd" clip-rule="evenodd" d="M43.8999 40.7598C43.8099 41.1298 43.4299 41.3498 43.0599 41.2498L40.6699 40.6098C40.2999 40.5098 40.0799 40.1298 40.1799 39.7598C40.2799 39.3898 40.6599 39.1798 41.0299 39.2698L43.4199 39.9198C43.7899 40.0198 43.9999 40.3998 43.8999 40.7598Z" fill="#010211"/>
<path fill-rule="evenodd" clip-rule="evenodd" d="M42.7498 34.7905L40.6098 36.0305C40.2798 36.2205 39.8498 36.1005 39.6598 35.7705C39.4698 35.4405 39.5898 35.0205 39.9198 34.8305L42.0598 33.5905C42.3898 33.4005 42.8098 33.5205 42.9998 33.8505C43.1998 34.1805 43.0798 34.6005 42.7498 34.7905Z" fill="#010211"/>
<path fill-rule="evenodd" clip-rule="evenodd" d="M37.9599 30.4396L37.3199 32.8296C37.2299 33.1896 36.8499 33.4096 36.4799 33.3096C36.1099 33.2196 35.89 32.8396 35.99 32.4696L36.6299 30.0796C36.7299 29.7096 37.1099 29.4896 37.4799 29.5896C37.8399 29.6896 38.0599 30.0696 37.9599 30.4396Z" fill="#010211"/>
<path fill-rule="evenodd" clip-rule="evenodd" d="M39.7002 44.9704L37.3002 40.8104C38.4802 39.8204 38.8202 38.0904 38.0202 36.7104C37.2202 35.3204 35.5602 34.7503 34.1102 35.2803L31.7002 31.1104C31.3402 30.4804 30.7102 30.1204 29.9802 30.1104C29.2502 30.1104 28.6202 30.4604 28.2502 31.1004C26.4702 34.0904 24.5502 37.8804 21.6902 40.4504L17.8202 42.6804C15.4402 44.0604 14.6102 47.1404 15.9902 49.5303C17.3702 51.9104 20.4502 52.7404 22.8302 51.3604L23.3902 51.0404L25.8002 55.2104C26.6402 56.6703 28.5302 57.1704 29.9902 56.3304L30.7102 55.9203C31.0402 55.7303 31.1502 55.3004 30.9602 54.9704L27.4402 48.8703C29.8602 48.1003 32.3402 47.9004 34.7902 47.9004C35.8302 47.9004 36.8702 47.9403 37.8902 47.9804C38.6402 48.0104 39.2902 47.6503 39.6802 47.0103C40.0702 46.3703 40.0802 45.6304 39.7002 44.9704ZM36.8302 37.4004C37.2402 38.1204 37.1202 39.0004 36.5902 39.5804L34.8202 36.5103C35.5902 36.3403 36.4102 36.6804 36.8302 37.4004ZM22.1402 50.1604C20.4102 51.1604 18.1802 50.5604 17.1902 48.8404C16.1902 47.1104 16.7802 44.8704 18.5102 43.8804L21.8502 41.9504L25.4802 48.2404L22.1402 50.1604ZM29.4202 55.0704L29.3002 55.1404C28.4902 55.6003 27.4602 55.3204 27.0002 54.5204L24.5902 50.3503L26.1702 49.4304L29.4202 55.0704ZM26.7302 47.6504L22.9702 41.1404C24.9802 39.2204 26.5502 36.7404 27.9302 34.3904L34.9302 46.5204C32.2002 46.5204 29.4302 46.7404 26.7302 47.6504ZM38.5002 46.3004C38.3802 46.5004 38.1802 46.6103 37.9402 46.6003C37.4802 46.5803 37.0102 46.5604 36.5402 46.5504L28.7302 33.0103C28.9702 32.6003 29.2002 32.1904 29.4302 31.8004C29.5502 31.6004 29.7402 31.4904 29.9702 31.4904C30.2002 31.5004 30.3902 31.6104 30.5102 31.8104L38.5102 45.6604C38.6302 45.8704 38.6202 46.1004 38.5002 46.3004Z" fill="#010211"/>
<path fill-rule="evenodd" clip-rule="evenodd" d="M49.5998 41.1396C45.2998 41.1396 41.7998 44.6396 41.7998 48.9396C41.7998 53.2396 45.2998 56.7397 49.5998 56.7397C53.8998 56.7397 57.3998 53.2496 57.3998 48.9396C57.3998 44.6296 53.9098 41.1396 49.5998 41.1396ZM49.5998 55.3596C47.2398 55.3596 45.1698 54.0796 44.0598 52.1696L46.2398 49.0797L48.2798 51.9697C48.4098 52.1596 48.6198 52.2696 48.8498 52.2696C49.0798 52.2696 49.2798 52.1596 49.4098 51.9697L52.2098 48.0096C52.2098 48.0096 54.3998 51.1096 55.1498 52.1696C54.0298 54.0796 51.9698 55.3596 49.5998 55.3596ZM52.7698 46.4196C52.6398 46.2296 52.4298 46.1196 52.2098 46.1196C51.9898 46.1196 51.7698 46.2296 51.6398 46.4196L48.8498 50.3797L46.7998 47.4796C46.6798 47.2996 46.4698 47.1896 46.2398 47.1896C46.0098 47.1896 45.8098 47.2996 45.6798 47.4796L43.4198 50.6796C43.2698 50.1296 43.1798 49.5396 43.1798 48.9396C43.1798 45.3996 46.0598 42.5196 49.5998 42.5196C53.1398 42.5196 56.0198 45.3996 56.0198 48.9396C56.0198 49.5396 55.9398 50.1296 55.7798 50.6796L52.7698 46.4196Z" fill="#5A5BB5"/>
<path fill-rule="evenodd" clip-rule="evenodd" d="M50.16 45.3499C50.16 46.0199 49.61 46.5699 48.94 46.5699C48.27 46.5699 47.71 46.0199 47.71 45.3499C47.71 44.6799 48.26 44.1299 48.94 44.1299C49.62 44.1299 50.16 44.6699 50.16 45.3499Z" fill="#5A5BB5"/>
<path fill-rule="evenodd" clip-rule="evenodd" d="M49.5998 17.2002C45.2998 17.2002 41.7998 20.7002 41.7998 25.0002C41.7998 29.3002 45.2998 32.8002 49.5998 32.8002C53.8998 32.8002 57.3998 29.3102 57.3998 25.0002C57.3998 20.6902 53.9098 17.2002 49.5998 17.2002ZM49.5998 31.4202C46.0598 31.4202 43.1798 28.5402 43.1798 25.0002C43.1798 21.4602 46.0598 18.5802 49.5998 18.5802C53.1398 18.5802 56.0198 21.4602 56.0198 25.0002C56.0198 28.5402 53.1398 31.4202 49.5998 31.4202Z" fill="#5A5BB5"/>
<path fill-rule="evenodd" clip-rule="evenodd" d="M53.3 24.0701L48.82 20.8801C48.48 20.6301 48.02 20.6001 47.64 20.7901C47.26 20.9901 47.02 21.3801 47.02 21.8101V28.1901C47.02 28.6201 47.26 29.0101 47.64 29.2101C48.02 29.4001 48.48 29.3701 48.82 29.1201L53.3 25.9301C53.6 25.7101 53.77 25.3701 53.77 25.0001C53.77 24.6301 53.6 24.2901 53.3 24.0701ZM48.4 27.7301V22.2701L52.22 25.0001L48.4 27.7301Z" fill="#5A5BB5"/>
<path fill-rule="evenodd" clip-rule="evenodd" d="M30.7899 15.2598H16.3399C15.3899 15.2598 14.6099 16.0398 14.6099 16.9898V26.0498C14.6099 26.9998 15.3899 27.7798 16.3399 27.7798H30.7899C31.7399 27.7798 32.5199 26.9998 32.5199 26.0498V16.9898C32.5199 16.0398 31.7399 15.2598 30.7899 15.2598ZM29.9999 16.6398L23.5699 22.3098C23.5699 22.3098 19.1799 18.4498 17.1299 16.6398H29.9999ZM15.9899 25.6598V17.4698L20.8699 21.7798L15.9899 25.6598ZM17.2799 26.3998L21.9199 22.6998L23.1099 23.7498C23.3699 23.9798 23.7599 23.9798 24.0199 23.7498L25.2099 22.6998L29.8499 26.3998H17.2799ZM31.1399 25.6598L26.2599 21.7798L31.1399 17.4698V25.6598Z" fill="#5A5BB5"/>
</g>
<defs>
<clipPath id="clip0_4877_20908">
<rect width="72" height="72" fill="white"/>
</clipPath>
</defs>
</svg>
