<svg width="72" height="72" viewBox="0 0 72 72" fill="none" xmlns="http://www.w3.org/2000/svg">
<g clip-path="url(#clip0_4877_20672)">
<path d="M64 0.5H8C3.85786 0.5 0.5 3.85786 0.5 8V64C0.5 68.1421 3.85786 71.5 8 71.5H64C68.1421 71.5 71.5 68.1421 71.5 64V8C71.5 3.85786 68.1421 0.5 64 0.5Z" fill="#F9F9F9"/>
<path d="M64 0.5H8C3.85786 0.5 0.5 3.85786 0.5 8V64C0.5 68.1421 3.85786 71.5 8 71.5H64C68.1421 71.5 71.5 68.1421 71.5 64V8C71.5 3.85786 68.1421 0.5 64 0.5Z" stroke="#EDEDED"/>
<path fill-rule="evenodd" clip-rule="evenodd" d="M56.7099 54.0003H54.7099V27.7203C54.7099 27.3403 54.3999 27.0303 54.0199 27.0303H48.5399C48.1599 27.0303 47.8499 27.3403 47.8499 27.7203V54.0003H44.5299V32.9003C44.5299 32.5103 44.2199 32.2103 43.8399 32.2103H38.3599C37.9799 32.2103 37.6699 32.5103 37.6699 32.9003V54.0003H34.3499V38.6603C34.3499 38.2703 34.0399 37.9703 33.6599 37.9703H28.1799C27.7999 37.9703 27.4899 38.2703 27.4899 38.6603V54.0003H24.1699V44.1703C24.1699 43.7803 23.8599 43.4803 23.4799 43.4803H17.9899C17.6099 43.4803 17.2999 43.7803 17.2999 44.1703V54.0003H15.2999C14.9199 54.0003 14.6099 54.3103 14.6099 54.6903C14.6099 55.0703 14.9199 55.3803 15.2999 55.3803H56.7099C57.0899 55.3803 57.3999 55.0703 57.3999 54.6903C57.3999 54.3103 57.0899 54.0003 56.7099 54.0003ZM22.7899 54.0003H18.6799V44.8603H22.7899V54.0003ZM32.9699 54.0003H28.8699V39.3503H32.9699V54.0003ZM43.1499 54.0003H39.0499V33.5903H43.1499V54.0003ZM53.3299 54.0003H49.2299V28.4103H53.3299V54.0003Z" fill="#010211"/>
<path fill-rule="evenodd" clip-rule="evenodd" d="M54.71 17.4002L54.07 21.7502C54.02 22.1302 53.67 22.3902 53.29 22.3402C52.91 22.2802 52.65 21.9302 52.71 21.5502L53.06 19.1102C46.9 24.6202 40.4 29.0102 33.86 32.5302C33.53 32.7102 33.11 32.5802 32.93 32.2502C32.75 31.9102 32.87 31.4902 33.21 31.3102C39.65 27.8502 46.05 23.5202 52.13 18.1002L49.67 18.2302C49.29 18.2502 48.97 17.9602 48.95 17.5802C48.93 17.2002 49.22 16.8802 49.6 16.8602L53.99 16.6102C54.19 16.6002 54.39 16.6802 54.53 16.8402C54.67 16.9902 54.74 17.2002 54.71 17.4002Z" fill="#5A5BB5"/>
<path fill-rule="evenodd" clip-rule="evenodd" d="M27.2702 29.0497C28.3502 28.2197 29.0502 26.9297 29.0502 25.4697C29.0502 22.9897 27.0302 20.9697 24.5502 20.9697C22.0702 20.9697 20.0602 22.9897 20.0602 25.4697C20.0602 26.9297 20.7602 28.2197 21.8402 29.0497C18.9002 30.0797 16.7302 32.7297 16.3802 35.9197C16.3602 36.1197 16.4202 36.3097 16.5502 36.4597C16.6902 36.5997 16.8702 36.6897 17.0702 36.6897H32.0402C32.2402 36.6897 32.4202 36.5997 32.5502 36.4597C32.6802 36.3097 32.7502 36.1197 32.7302 35.9197C32.3902 32.7297 30.2102 30.0797 27.2702 29.0497ZM21.4402 25.4697C21.4402 23.7497 22.8402 22.3497 24.5502 22.3497C26.2602 22.3497 27.6702 23.7497 27.6702 25.4697C27.6702 27.1897 26.2702 28.5897 24.5502 28.5897C22.8302 28.5897 21.4402 27.1897 21.4402 25.4697ZM17.8802 35.3097C18.5702 32.2497 21.2902 29.9697 24.5502 29.9697C27.8102 29.9697 30.5502 32.2497 31.2302 35.3097H17.8802Z" fill="#5A5BB5"/>
</g>
<defs>
<clipPath id="clip0_4877_20672">
<rect width="72" height="72" fill="white"/>
</clipPath>
</defs>
</svg>
