<svg width="72" height="72" viewBox="0 0 72 72" fill="none" xmlns="http://www.w3.org/2000/svg">
<g clip-path="url(#clip0_4877_20699)">
<path d="M64 0.5H8C3.85786 0.5 0.5 3.85786 0.5 8V64C0.5 68.1421 3.85786 71.5 8 71.5H64C68.1421 71.5 71.5 68.1421 71.5 64V8C71.5 3.85786 68.1421 0.5 64 0.5Z" fill="#F9F9F9"/>
<path d="M64 0.5H8C3.85786 0.5 0.5 3.85786 0.5 8V64C0.5 68.1421 3.85786 71.5 8 71.5H64C68.1421 71.5 71.5 68.1421 71.5 64V8C71.5 3.85786 68.1421 0.5 64 0.5Z" stroke="#EDEDED"/>
<path fill-rule="evenodd" clip-rule="evenodd" d="M43.3701 47.4697C43.7501 47.4697 44.0601 47.1597 44.0601 46.7797V45.7597C44.0601 45.3797 43.7501 45.0697 43.3701 45.0697C42.9901 45.0697 42.6801 45.3797 42.6801 45.7597V46.0897H16.7701V40.3097H38.0501C38.4301 40.3097 38.7401 39.9997 38.7401 39.6197C38.7401 39.2397 38.4301 38.9297 38.0501 38.9297H16.0801C15.7001 38.9297 15.3901 39.2397 15.3901 39.6197V46.7797C15.3901 47.1597 15.7001 47.4697 16.0801 47.4697H18.5801V48.8497H16.0801C15.7001 48.8497 15.3901 49.1597 15.3901 49.5397V56.6997C15.3901 57.0897 15.7001 57.3897 16.0801 57.3897H43.3701C43.7501 57.3897 44.0601 57.0897 44.0601 56.6997V49.5397C44.0601 49.1597 43.7501 48.8497 43.3701 48.8497H40.8901V47.4697H43.3701ZM19.9601 47.4697H39.5101V48.8497H19.9601V47.4697ZM42.6801 50.2297V56.0097H16.7701V50.2297H42.6801Z" fill="#010211"/>
<path fill-rule="evenodd" clip-rule="evenodd" d="M41.1798 44.0904C41.1798 44.4804 40.8698 44.7904 40.4898 44.7904H23.4698C23.0898 44.7904 22.7798 44.4804 22.7798 44.0904V42.3004C22.7798 41.9204 23.0898 41.6104 23.4698 41.6104H39.2798C39.6598 41.6104 39.9698 41.9204 39.9698 42.3004C39.9698 42.6804 39.6598 42.9904 39.2798 42.9904H24.1598V43.4004H40.4898C40.8698 43.4004 41.1798 43.7104 41.1798 44.0904Z" fill="#010211"/>
<path fill-rule="evenodd" clip-rule="evenodd" d="M40.8298 51.54H23.4698C23.0898 51.54 22.7798 51.84 22.7798 52.23V54.02C22.7798 54.4 23.0898 54.71 23.4698 54.71H40.8298C41.2198 54.71 41.5198 54.4 41.5198 54.02V52.23C41.5198 51.84 41.2198 51.54 40.8298 51.54ZM40.1398 53.33H24.1598V52.92H40.1398V53.33Z" fill="#010211"/>
<path fill-rule="evenodd" clip-rule="evenodd" d="M19.8999 51.1602C18.8199 51.1602 17.9399 52.0402 17.9399 53.1202C17.9399 54.2002 18.8199 55.0802 19.8999 55.0802C20.9799 55.0802 21.8599 54.2102 21.8599 53.1202C21.8599 52.0302 20.9799 51.1602 19.8999 51.1602ZM19.8999 53.7002C19.5799 53.7002 19.3199 53.4402 19.3199 53.1202C19.3199 52.8002 19.5799 52.5402 19.8999 52.5402C20.2199 52.5402 20.4799 52.8002 20.4799 53.1202C20.4799 53.4402 20.2199 53.7002 19.8999 53.7002Z" fill="#5A5BB5"/>
<path fill-rule="evenodd" clip-rule="evenodd" d="M19.8999 41.2402C18.8199 41.2402 17.9399 42.1202 17.9399 43.2002C17.9399 44.2802 18.8199 45.1602 19.8999 45.1602C20.9799 45.1602 21.8599 44.2802 21.8599 43.2002C21.8599 42.1202 20.9799 41.2402 19.8999 41.2402ZM19.8999 43.7802C19.5799 43.7802 19.3199 43.5202 19.3199 43.2002C19.3199 42.8802 19.5799 42.6202 19.8999 42.6202C20.2199 42.6202 20.4799 42.8802 20.4799 43.2002C20.4799 43.5202 20.2199 43.7802 19.8999 43.7802Z" fill="#5A5BB5"/>
<path fill-rule="evenodd" clip-rule="evenodd" d="M52.28 29.5496C54 28.0396 55.28 26.5796 55.97 25.3296C56.69 24.0196 56.78 22.8796 56.32 22.0796C55.85 21.2696 54.82 20.7796 53.33 20.7496C51.9 20.7196 49.99 21.0996 47.83 21.8396C47.38 19.5896 46.75 17.7496 46.01 16.5296C45.24 15.2496 44.3 14.5996 43.37 14.5996C42.44 14.5996 41.5 15.2496 40.73 16.5296C39.99 17.7496 39.36 19.5896 38.92 21.8396C36.75 21.0996 34.84 20.7196 33.42 20.7496C31.92 20.7796 30.89 21.2696 30.43 22.0796C29.96 22.8796 30.05 24.0196 30.77 25.3296C31.46 26.5796 32.74 28.0396 34.47 29.5496C32.74 31.0596 31.46 32.5196 30.77 33.7696C30.05 35.0796 29.96 36.2196 30.43 37.0196C30.89 37.8296 31.92 38.3196 33.42 38.3496C34.84 38.3796 36.75 37.9996 38.92 37.2596C39.36 39.5096 39.99 41.3496 40.73 42.5696C41.5 43.8496 42.44 44.4996 43.37 44.4996C44.3 44.4996 45.24 43.8496 46.01 42.5696C46.75 41.3496 47.38 39.5096 47.83 37.2596C49.99 37.9996 51.9 38.3796 53.33 38.3496C54.82 38.3196 55.85 37.8296 56.32 37.0196C56.78 36.2196 56.69 35.0796 55.97 33.7696C55.28 32.5196 54 31.0596 52.28 29.5496ZM34.64 36.8996C33.81 36.9996 33.08 36.9996 32.52 36.8596C32.11 36.7696 31.78 36.6096 31.62 36.3296C31.46 36.0496 31.49 35.6996 31.61 35.2896C31.78 34.7296 32.14 34.1096 32.64 33.4296C33.35 32.4996 34.33 31.4796 35.53 30.4396C36.38 31.1196 37.31 31.7996 38.31 32.4696C38.39 33.6696 38.51 34.8196 38.68 35.8896C37.18 36.4196 35.81 36.7596 34.64 36.8996ZM38.23 30.7496C37.67 30.3496 37.13 29.9496 36.62 29.5496C37.13 29.1496 37.67 28.7496 38.23 28.3496C38.23 28.7496 38.23 29.1496 38.23 29.5496C38.23 29.9496 38.23 30.3496 38.23 30.7496ZM38.31 26.6296C37.31 27.2896 36.38 27.9796 35.53 28.6596C34.33 27.6196 33.35 26.5996 32.64 25.6696C32.14 24.9896 31.78 24.3596 31.61 23.8096C31.49 23.3996 31.46 23.0496 31.62 22.7696C31.78 22.4896 32.11 22.3296 32.52 22.2296C33.08 22.0996 33.81 22.0996 34.64 22.1996C35.81 22.3396 37.18 22.6796 38.68 23.2096C38.51 24.2796 38.39 25.4296 38.31 26.6296ZM46.98 25.6996C46.64 25.4896 46.3 25.2896 45.95 25.0796C45.6 24.8796 45.25 24.6896 44.9 24.4996C45.53 24.2096 46.15 23.9396 46.75 23.6996C46.84 24.3396 46.92 25.0096 46.98 25.6996ZM41.37 18.3196C41.7 17.5396 42.07 16.9196 42.46 16.4896C42.76 16.1796 43.05 15.9796 43.37 15.9796C43.69 15.9796 43.99 16.1796 44.28 16.4896C44.68 16.9196 45.04 17.5396 45.37 18.3196C45.83 19.3896 46.22 20.7496 46.52 22.3096C45.51 22.7096 44.45 23.1696 43.37 23.6996C42.29 23.1696 41.24 22.7096 40.22 22.3096C40.52 20.7496 40.91 19.3896 41.37 18.3196ZM39.99 23.6996C40.6 23.9396 41.21 24.2096 41.84 24.4996C41.49 24.6896 41.14 24.8796 40.79 25.0796C40.44 25.2896 40.1 25.4896 39.76 25.6996C39.82 25.0096 39.9 24.3396 39.99 23.6996ZM39.76 33.3996C40.1 33.6096 40.44 33.8096 40.79 34.0096C41.14 34.2196 41.49 34.4096 41.84 34.5996C41.21 34.8896 40.6 35.1596 39.99 35.3996C39.9 34.7596 39.82 34.0896 39.76 33.3996ZM45.37 40.7796C45.04 41.5596 44.68 42.1796 44.28 42.6096C43.99 42.9196 43.7 43.1196 43.37 43.1196C43.04 43.1196 42.76 42.9196 42.46 42.6096C42.07 42.1796 41.7 41.5596 41.37 40.7796C40.91 39.7096 40.52 38.3496 40.22 36.7896C41.24 36.3896 42.29 35.9296 43.37 35.3896C44.45 35.9296 45.51 36.3896 46.52 36.7896C46.22 38.3496 45.83 39.7096 45.37 40.7796ZM46.75 35.3996C46.15 35.1596 45.53 34.8896 44.9 34.5996C45.25 34.4096 45.6 34.2196 45.95 34.0096C46.3 33.8096 46.64 33.6096 46.98 33.3996C46.92 34.0896 46.84 34.7596 46.75 35.3996ZM47.1 31.6996C46.51 32.0796 45.89 32.4496 45.26 32.8196C44.63 33.1796 44 33.5296 43.37 33.8496C42.75 33.5296 42.12 33.1796 41.48 32.8196C40.85 32.4496 40.24 32.0796 39.65 31.6996C39.61 30.9996 39.6 30.2796 39.6 29.5496C39.6 28.8196 39.61 28.0996 39.65 27.3996C40.24 27.0196 40.85 26.6496 41.48 26.2796C42.12 25.9096 42.75 25.5696 43.37 25.2496C44 25.5696 44.63 25.9096 45.26 26.2796C45.89 26.6496 46.51 27.0196 47.1 27.3996C47.13 28.0996 47.15 28.8196 47.15 29.5496C47.15 30.2796 47.13 30.9996 47.1 31.6996ZM52.1 22.1996C52.94 22.0996 53.66 22.0996 54.23 22.2296C54.64 22.3296 54.96 22.4896 55.12 22.7696C55.28 23.0496 55.26 23.3996 55.13 23.8096C54.97 24.3596 54.61 24.9896 54.1 25.6696C53.4 26.5996 52.42 27.6196 51.21 28.6596C50.36 27.9796 49.43 27.2896 48.43 26.6296C48.36 25.4296 48.23 24.2796 48.07 23.2096C49.56 22.6796 50.94 22.3396 52.1 22.1996ZM48.51 28.3496C49.08 28.7496 49.62 29.1496 50.13 29.5496C49.62 29.9496 49.08 30.3496 48.51 30.7496C48.52 30.3496 48.53 29.9496 48.53 29.5496C48.53 29.1496 48.52 28.7496 48.51 28.3496ZM55.12 36.3296C54.96 36.6096 54.64 36.7696 54.23 36.8596C53.66 36.9996 52.94 36.9996 52.1 36.8996C50.94 36.7596 49.56 36.4196 48.07 35.8896C48.23 34.8196 48.36 33.6696 48.43 32.4696C49.43 31.7996 50.36 31.1196 51.21 30.4396C52.42 31.4796 53.4 32.4996 54.1 33.4296C54.61 34.1096 54.97 34.7296 55.13 35.2896C55.26 35.6996 55.28 36.0496 55.12 36.3296Z" fill="#5A5BB5"/>
</g>
<defs>
<clipPath id="clip0_4877_20699">
<rect width="72" height="72" fill="white"/>
</clipPath>
</defs>
</svg>
