<svg width="72" height="72" viewBox="0 0 72 72" fill="none" xmlns="http://www.w3.org/2000/svg">
<g clip-path="url(#clip0_4877_20689)">
<path d="M64.27 0.5H8.27002C4.12788 0.5 0.77002 3.85786 0.77002 8V64C0.77002 68.1421 4.12788 71.5 8.27002 71.5H64.27C68.4122 71.5 71.77 68.1421 71.77 64V8C71.77 3.85786 68.4122 0.5 64.27 0.5Z" fill="#F9F9F9"/>
<path d="M64 0.5H8C3.85786 0.5 0.5 3.85786 0.5 8V64C0.5 68.1421 3.85786 71.5 8 71.5H64C68.1421 71.5 71.5 68.1421 71.5 64V8C71.5 3.85786 68.1421 0.5 64 0.5Z" stroke="#EDEDED"/>
<path fill-rule="evenodd" clip-rule="evenodd" d="M49.4102 33.0697C48.8602 33.0697 48.4102 33.5197 48.4102 34.0697C48.4102 34.6197 48.8602 35.0797 49.4102 35.0797C49.9602 35.0797 50.4202 34.6197 50.4202 34.0697C50.4202 33.5197 49.9702 33.0697 49.4102 33.0697ZM24.2402 32.3197C23.6902 32.2897 23.2202 32.7197 23.1902 33.2797C23.1702 33.8297 23.6002 34.2997 24.1502 34.3297C24.7002 34.3497 25.1702 33.9197 25.2002 33.3697C25.2202 32.8097 24.8002 32.3397 24.2402 32.3197ZM24.2402 32.3197C23.6902 32.2897 23.2202 32.7197 23.1902 33.2797C23.1702 33.8297 23.6002 34.2997 24.1502 34.3297C24.7002 34.3497 25.1702 33.9197 25.2002 33.3697C25.2202 32.8097 24.8002 32.3397 24.2402 32.3197ZM49.4102 33.0697C48.8602 33.0697 48.4102 33.5197 48.4102 34.0697C48.4102 34.6197 48.8602 35.0797 49.4102 35.0797C49.9602 35.0797 50.4202 34.6197 50.4202 34.0697C50.4202 33.5197 49.9702 33.0697 49.4102 33.0697ZM24.2402 32.3197C23.6902 32.2897 23.2202 32.7197 23.1902 33.2797C23.1702 33.8297 23.6002 34.2997 24.1502 34.3297C24.7002 34.3497 25.1702 33.9197 25.2002 33.3697C25.2202 32.8097 24.8002 32.3397 24.2402 32.3197ZM49.4102 33.0697C48.8602 33.0697 48.4102 33.5197 48.4102 34.0697C48.4102 34.6197 48.8602 35.0797 49.4102 35.0797C49.9602 35.0797 50.4202 34.6197 50.4202 34.0697C50.4202 33.5197 49.9702 33.0697 49.4102 33.0697ZM49.4102 33.0697C48.8602 33.0697 48.4102 33.5197 48.4102 34.0697C48.4102 34.6197 48.8602 35.0797 49.4102 35.0797C49.9602 35.0797 50.4202 34.6197 50.4202 34.0697C50.4202 33.5197 49.9702 33.0697 49.4102 33.0697ZM24.2402 32.3197C23.6902 32.2897 23.2202 32.7197 23.1902 33.2797C23.1702 33.8297 23.6002 34.2997 24.1502 34.3297C24.7002 34.3497 25.1702 33.9197 25.2002 33.3697C25.2202 32.8097 24.8002 32.3397 24.2402 32.3197ZM24.2402 32.3197C23.6902 32.2897 23.2202 32.7197 23.1902 33.2797C23.1702 33.8297 23.6002 34.2997 24.1502 34.3297C24.7002 34.3497 25.1702 33.9197 25.2002 33.3697C25.2202 32.8097 24.8002 32.3397 24.2402 32.3197ZM49.4102 33.0697C48.8602 33.0697 48.4102 33.5197 48.4102 34.0697C48.4102 34.6197 48.8602 35.0797 49.4102 35.0797C49.9602 35.0797 50.4202 34.6197 50.4202 34.0697C50.4202 33.5197 49.9702 33.0697 49.4102 33.0697ZM49.4102 33.0697C48.8602 33.0697 48.4102 33.5197 48.4102 34.0697C48.4102 34.6197 48.8602 35.0797 49.4102 35.0797C49.9602 35.0797 50.4202 34.6197 50.4202 34.0697C50.4202 33.5197 49.9702 33.0697 49.4102 33.0697ZM24.2402 32.3197C23.6902 32.2897 23.2202 32.7197 23.1902 33.2797C23.1702 33.8297 23.6002 34.2997 24.1502 34.3297C24.7002 34.3497 25.1702 33.9197 25.2002 33.3697C25.2202 32.8097 24.8002 32.3397 24.2402 32.3197ZM56.4202 43.7297L51.8102 31.8497C51.5302 31.1297 50.8502 30.6997 50.1202 30.6997C49.9102 30.6997 49.6802 30.7397 49.4702 30.8197L47.7202 31.4997L47.5702 31.5597V31.5297C47.2902 31.5997 46.7102 31.7997 46.3502 32.3697C46.3302 32.4097 46.2402 32.5497 46.1502 32.7697C46.1202 32.8397 46.0902 32.9297 46.0702 33.0197C46.0502 33.1397 46.0302 33.2797 46.0302 33.4197C46.0302 33.5097 46.0402 33.5897 46.0602 33.6797C46.0602 33.6997 46.0602 33.7297 46.0702 33.7597C46.0802 33.8197 46.1002 33.8797 46.1202 33.9397C46.1202 33.9797 46.1402 34.0097 46.1502 34.0497L46.4802 34.9097C46.4402 34.9997 46.3802 35.0397 46.0402 35.2097C45.3902 35.5197 45.0702 35.6797 45.0002 35.6997C44.5402 35.8197 44.1702 35.7297 43.7502 35.6397C43.1702 35.5097 43.0202 35.3397 42.4502 35.0997C42.3702 35.0597 42.2802 35.0297 42.1802 34.9897C42.0302 34.9297 41.8802 34.8697 41.7402 34.8197C41.2902 34.6597 40.8702 34.5297 40.3602 34.4697C40.3402 34.4697 40.3202 34.4697 40.3002 34.4697H40.2402C39.7502 34.4097 39.3302 34.4197 39.0302 34.4497C38.8802 34.4697 38.7602 34.4897 38.6702 34.4997C38.4702 34.5297 37.9002 34.6297 37.2202 34.9197C37.1702 34.9397 37.1202 34.9697 37.0702 34.9997C36.8202 35.0997 36.5702 35.2397 36.3002 35.4097C36.0202 35.3997 35.8402 35.2197 35.6502 35.0797C35.3102 34.8297 34.9302 34.7097 34.5302 34.6697V34.7297C34.1702 34.6597 33.8302 34.6297 33.4902 34.6297H33.4302C33.2202 34.6297 33.0002 34.6497 32.7802 34.6697C32.1502 34.7397 31.5602 34.8697 31.3202 34.9697C30.9402 35.1197 30.8202 35.1197 30.5702 35.1197C30.4202 35.1497 30.2702 35.1797 30.1202 35.1897C30.1202 35.1897 30.1002 35.1897 30.0902 35.1997C30.0802 35.1997 30.0702 35.2097 30.0602 35.2097C29.7802 35.2997 29.1702 35.1997 28.7602 35.0797C28.5502 35.0097 28.3102 34.8997 27.8302 34.6597C27.6002 34.5497 27.3902 34.4497 27.2302 34.3597C27.1802 34.3397 27.1302 34.3097 27.0902 34.2897C27.3102 33.7797 27.4502 33.4697 27.4502 33.4597C27.5402 33.2597 27.5802 33.0597 27.5902 32.8597C27.6102 32.7397 27.6102 32.6097 27.5902 32.4897H27.6402C27.6402 32.3597 27.6202 32.1997 27.5602 32.0397C27.3602 31.4597 26.8502 31.1997 26.6302 31.1097C26.5802 31.0897 26.5502 31.0797 26.5302 31.0697L24.2902 30.0797C24.0502 29.9797 23.8102 29.9297 23.5602 29.9297C22.8702 29.9297 22.2002 30.3297 21.9002 30.9997L16.7502 42.6497C16.3502 43.5697 16.7702 44.6397 17.6802 45.0397L19.9202 46.0297C20.8302 46.4397 21.9002 46.0197 22.3002 45.1097C22.3002 45.1097 22.3902 44.9197 22.5302 44.5897C23.1402 44.8597 23.6502 45.0897 23.8202 45.1597C23.9502 45.2097 24.0202 45.3097 24.0702 45.4297C24.1402 45.5697 24.1802 45.7397 24.2102 45.9097C24.3202 46.3697 24.3902 46.8597 24.5502 47.2697L23.9402 48.4097C23.2902 49.6197 23.7502 51.1497 24.9702 51.7897C25.3402 51.9897 25.7502 52.0897 26.1502 52.0897C26.0202 53.0897 26.5102 54.1197 27.4502 54.6197C28.2002 55.0197 29.0702 54.9997 29.7702 54.6297C29.9902 55.0897 30.3602 55.4797 30.8302 55.7397H30.8402C31.5102 56.0997 32.2902 56.1097 32.9502 55.8397C33.1702 56.3697 33.5502 56.8197 34.0902 57.1097C35.2002 57.6997 36.5602 57.3697 37.2802 56.3897L37.8802 56.7297C39.0502 57.3997 40.5602 56.9497 41.2102 55.7697C41.4202 55.3897 41.5102 54.9797 41.5102 54.5797C41.6602 54.6097 41.8102 54.6197 41.9602 54.6197C42.8202 54.6197 43.6702 54.1597 44.1202 53.3597C44.3402 52.9497 44.4302 52.5197 44.4102 52.0897C44.5002 52.0997 44.5802 52.0997 44.6702 52.0997C45.5402 52.0997 46.3802 51.6397 46.8302 50.8297C47.1602 50.2297 47.2102 49.5497 47.0202 48.9297C47.6402 48.7597 48.1902 48.3497 48.5202 47.7497C48.7902 47.2597 48.8702 46.7197 48.7902 46.2097L50.5702 45.4597L50.7602 45.9297C51.0302 46.6497 51.7202 47.0897 52.4502 47.0897C52.6602 47.0897 52.8902 47.0497 53.1002 46.9697L55.3902 46.0797C56.1002 45.7997 56.5402 45.1097 56.5402 44.3897C56.5402 44.1697 56.5002 43.9497 56.4202 43.7397V43.7297ZM21.0402 44.5397C20.9702 44.6997 20.8202 44.7997 20.6502 44.7997C20.6002 44.7997 20.5402 44.7897 20.4802 44.7597L18.2302 43.7697C18.0102 43.6697 17.9202 43.4197 18.0102 43.1997L23.1602 31.5497C23.2602 31.3397 23.5102 31.2397 23.7302 31.3297L25.9702 32.3297H25.9802C26.1302 32.3997 26.2302 32.5497 26.2302 32.7097C26.2302 32.7697 26.2202 32.8297 26.1902 32.8897L21.0402 44.5397ZM26.8302 50.4697C26.4902 50.7197 26.0202 50.7797 25.6202 50.5697C25.2402 50.3697 25.0302 49.9797 25.0302 49.5797C25.0302 49.3997 25.0702 49.2197 25.1602 49.0497L26.2802 46.9597C26.5702 46.4197 27.2502 46.2097 27.7902 46.4997C28.3102 46.7797 28.5202 47.3997 28.3002 47.9297L26.8302 50.4697ZM29.6202 52.9297C29.4102 53.2997 29.0302 53.5197 28.6202 53.5197C28.4502 53.5197 28.2702 53.4797 28.1002 53.3897C27.5502 53.0997 27.3502 52.4197 27.6402 51.8797L29.4502 48.6897C29.7902 48.4297 30.2702 48.3697 30.6702 48.5897C31.1102 48.8197 31.3302 49.3197 31.2402 49.7797L29.6202 52.9297ZM32.9002 54.2197C32.5702 54.6397 31.9702 54.7797 31.4902 54.5197C31.0902 54.2997 30.8702 53.8897 30.9002 53.4597L32.4602 50.4397C32.8002 50.1097 33.3302 50.0197 33.7702 50.2497C34.2102 50.4897 34.4302 50.9797 34.3402 51.4497L32.9002 54.2197ZM37.3302 53.4197L36.2602 55.4197C35.9702 55.9597 35.2802 56.1697 34.7402 55.8797C34.3302 55.6597 34.1202 55.2197 34.1502 54.7897L35.5602 52.0897C35.9002 51.7597 36.4202 51.6697 36.8602 51.8997C37.0102 51.9797 37.1402 52.0897 37.2402 52.2197C37.2402 52.2297 37.2502 52.2297 37.2502 52.2297C37.3902 52.4297 37.4602 52.6597 37.4602 52.8997C37.4602 53.0797 37.4202 53.2597 37.3302 53.4197ZM40.0002 55.0997C39.7202 55.6097 39.0702 55.8197 38.5602 55.5297L37.9602 55.1797L38.5502 54.0797C38.6902 53.7997 38.7902 53.5097 38.8202 53.2097C38.8202 53.2097 39.5402 53.6297 39.5802 53.6497C40.0902 53.9397 40.2802 54.5897 40.0002 55.0997ZM47.3102 47.0797C47.0302 47.5997 46.3802 47.7997 45.8702 47.5097C44.4702 46.7297 43.0702 45.9497 41.6902 45.1497C41.3602 44.9597 40.9302 45.0797 40.7402 45.4097C40.5602 45.7397 40.6702 46.1597 41.0002 46.3497C42.3902 47.1497 43.7902 47.9297 45.1902 48.7097C45.7002 48.9997 45.9002 49.6497 45.6202 50.1697C45.4302 50.5197 45.0602 50.7197 44.6802 50.7197C44.5102 50.7197 44.3302 50.6797 44.1702 50.5897L38.6702 47.4897C38.3302 47.3097 37.9102 47.4197 37.7302 47.7597C37.5402 48.0897 37.6602 48.5097 37.9902 48.6997C37.9902 48.6997 42.4802 51.2397 42.4902 51.2397C42.9902 51.5297 43.1902 52.1797 42.9102 52.6897C42.6202 53.1997 41.9802 53.3997 41.4602 53.1197L38.2702 51.2997C38.0602 51.0597 37.8102 50.8497 37.5302 50.6997H37.5202C36.9102 50.3697 36.2402 50.3197 35.6202 50.5097C35.4402 49.8997 35.0202 49.3597 34.4202 49.0397C33.8202 48.7097 33.1402 48.6697 32.5302 48.8497C32.3402 48.2397 31.9202 47.6997 31.3202 47.3797C30.8102 47.1097 30.2602 47.0297 29.7302 47.1197C29.6102 46.3697 29.1602 45.6797 28.4502 45.2997C28.4502 45.2997 28.4468 45.2997 28.4402 45.2997C27.4802 44.7897 26.3302 44.9797 25.5702 45.6697C25.5402 45.5297 25.5102 45.3897 25.4702 45.2497C25.2802 44.6297 24.9502 44.1197 24.3202 43.8797C24.1502 43.8097 23.6702 43.5997 23.0902 43.3397C24.0102 41.2497 25.5502 37.7797 26.5302 35.5597L27.9002 36.1997C28.3802 36.4597 28.8602 36.5797 29.3502 36.6197C30.2702 36.6697 31.2102 36.3797 32.2202 36.1697C33.0602 35.9997 33.9602 35.8997 34.9702 36.2997C35.0002 36.2997 35.0302 36.3197 35.0502 36.3297C34.7602 36.5797 34.4802 36.8397 34.2202 37.1097H34.2102C33.0202 38.3197 31.5602 39.3897 29.9202 40.3497C29.7002 40.4797 29.5502 40.6897 29.4902 40.9497C29.4402 41.1897 29.4902 41.4297 29.6302 41.6397C29.6402 41.6597 29.6502 41.6697 29.6602 41.6797C30.4802 42.7297 31.3402 43.2797 32.2102 43.5197C33.4702 43.8797 34.7802 43.5697 36.0602 43.0897C36.9902 42.7497 37.9102 42.3097 38.7902 42.0797C39.5002 41.8897 40.1802 41.8197 40.8002 42.1797L46.8802 45.6397C47.0802 45.7597 47.2402 45.9197 47.3302 46.1197C47.4802 46.4197 47.4902 46.7797 47.3102 47.0897V47.0797ZM48.2102 44.9497C48.0302 44.7497 47.8102 44.5697 47.5602 44.4297L41.4902 40.9697C40.0602 40.1497 38.4102 40.6597 36.7002 41.3497C34.8502 42.0997 32.8802 43.0797 31.1102 41.2397C32.6602 40.2897 34.0402 39.2397 35.2002 38.0697C35.6502 37.6097 36.1502 37.1697 36.6902 36.7997C36.7002 36.7997 36.7002 36.7997 36.7102 36.7997C37.2202 36.4497 37.6902 36.2097 38.1402 36.0497C39.1702 35.6897 40.0602 35.7797 40.8602 36.0097C41.8602 36.2897 42.7302 36.7697 43.5602 36.9897C44.3602 37.2097 45.1202 37.2197 45.8902 36.8197L46.9902 36.2297L50.0702 44.1897L48.2102 44.9597V44.9497ZM54.8902 44.7897L52.6002 45.6797C52.3801 45.7697 52.1302 45.6597 52.0402 45.4397L47.4402 33.5597C47.3902 33.4397 47.4002 33.2997 47.4602 33.1897C47.4702 33.1897 47.4702 33.1797 47.4802 33.1697C47.5202 33.0997 47.5902 33.0397 47.6802 32.9997L49.9702 32.1097C49.9702 32.1097 50.0702 32.0797 50.1202 32.0797C50.2901 32.0797 50.4602 32.1897 50.5302 32.3597L55.1302 44.2297C55.1502 44.2797 55.1602 44.3397 55.1602 44.3897C55.1602 44.5697 55.0602 44.7297 54.8902 44.7897ZM49.4102 33.0697C48.8602 33.0697 48.4102 33.5197 48.4102 34.0697C48.4102 34.6197 48.8602 35.0797 49.4102 35.0797C49.9602 35.0797 50.4202 34.6197 50.4202 34.0697C50.4202 33.5197 49.9702 33.0697 49.4102 33.0697ZM24.2402 32.3197C23.6902 32.2897 23.2202 32.7197 23.1902 33.2797C23.1702 33.8297 23.6002 34.2997 24.1502 34.3297C24.7002 34.3497 25.1702 33.9197 25.2002 33.3697C25.2202 32.8097 24.8002 32.3397 24.2402 32.3197ZM24.2402 32.3197C23.6902 32.2897 23.2202 32.7197 23.1902 33.2797C23.1702 33.8297 23.6002 34.2997 24.1502 34.3297C24.7002 34.3497 25.1702 33.9197 25.2002 33.3697C25.2202 32.8097 24.8002 32.3397 24.2402 32.3197ZM49.4102 33.0697C48.8602 33.0697 48.4102 33.5197 48.4102 34.0697C48.4102 34.6197 48.8602 35.0797 49.4102 35.0797C49.9602 35.0797 50.4202 34.6197 50.4202 34.0697C50.4202 33.5197 49.9702 33.0697 49.4102 33.0697ZM49.4102 33.0697C48.8602 33.0697 48.4102 33.5197 48.4102 34.0697C48.4102 34.6197 48.8602 35.0797 49.4102 35.0797C49.9602 35.0797 50.4202 34.6197 50.4202 34.0697C50.4202 33.5197 49.9702 33.0697 49.4102 33.0697ZM24.2402 32.3197C23.6902 32.2897 23.2202 32.7197 23.1902 33.2797C23.1702 33.8297 23.6002 34.2997 24.1502 34.3297C24.7002 34.3497 25.1702 33.9197 25.2002 33.3697C25.2202 32.8097 24.8002 32.3397 24.2402 32.3197ZM24.2402 32.3197C23.6902 32.2897 23.2202 32.7197 23.1902 33.2797C23.1702 33.8297 23.6002 34.2997 24.1502 34.3297C24.7002 34.3497 25.1702 33.9197 25.2002 33.3697C25.2202 32.8097 24.8002 32.3397 24.2402 32.3197ZM49.4102 33.0697C48.8602 33.0697 48.4102 33.5197 48.4102 34.0697C48.4102 34.6197 48.8602 35.0797 49.4102 35.0797C49.9602 35.0797 50.4202 34.6197 50.4202 34.0697C50.4202 33.5197 49.9702 33.0697 49.4102 33.0697ZM49.4102 33.0697C48.8602 33.0697 48.4102 33.5197 48.4102 34.0697C48.4102 34.6197 48.8602 35.0797 49.4102 35.0797C49.9602 35.0797 50.4202 34.6197 50.4202 34.0697C50.4202 33.5197 49.9702 33.0697 49.4102 33.0697ZM24.2402 32.3197C23.6902 32.2897 23.2202 32.7197 23.1902 33.2797C23.1702 33.8297 23.6002 34.2997 24.1502 34.3297C24.7002 34.3497 25.1702 33.9197 25.2002 33.3697C25.2202 32.8097 24.8002 32.3397 24.2402 32.3197Z" fill="#010211"/>
<path fill-rule="evenodd" clip-rule="evenodd" d="M45.3098 14.5996C44.0298 14.5996 42.9898 15.6396 42.9898 16.9196C42.9898 17.3196 43.0998 17.6996 43.2798 18.0296L40.5098 20.9196C40.1998 20.7696 39.8498 20.6796 39.4798 20.6796C38.8198 20.6796 38.2298 20.9596 37.7998 21.3996L35.9398 20.4796C35.9598 20.3696 35.9698 20.2496 35.9698 20.1196C35.9698 18.8496 34.9298 17.8096 33.6498 17.8096C32.3698 17.8096 31.3398 18.8496 31.3398 20.1196C31.3398 20.4496 31.4098 20.7696 31.5298 21.0496L29.0398 23.2296C28.6898 23.0096 28.2698 22.8796 27.8298 22.8796C26.5498 22.8796 25.5098 23.9196 25.5098 25.1996C25.5098 26.4796 26.5498 27.5096 27.8298 27.5096C29.1098 27.5096 30.1398 26.4696 30.1398 25.1996C30.1398 24.8696 30.0698 24.5496 29.9498 24.2696L32.4398 22.0896C32.7998 22.3096 33.2098 22.4396 33.6498 22.4396C34.3098 22.4396 34.9098 22.1596 35.3298 21.7196L37.1898 22.6396C37.1698 22.7596 37.1598 22.8796 37.1598 22.9996C37.1598 24.2696 38.2098 25.3096 39.4798 25.3096C40.7498 25.3096 41.7998 24.2696 41.7998 22.9996C41.7998 22.5896 41.6898 22.2096 41.5098 21.8796L44.2798 18.9896C44.5898 19.1496 44.9398 19.2296 45.3098 19.2296C46.5798 19.2296 47.6298 18.1896 47.6298 16.9196C47.6298 15.6496 46.5798 14.5996 45.3098 14.5996ZM27.8298 26.1396C27.3098 26.1396 26.8898 25.7196 26.8898 25.2096C26.8898 24.6996 27.3098 24.2696 27.8298 24.2696C28.3498 24.2696 28.7598 24.6896 28.7598 25.2096C28.7598 25.7296 28.3398 26.1396 27.8298 26.1396ZM33.6498 21.0696C33.1398 21.0696 32.7198 20.6496 32.7198 20.1296C32.7198 19.6096 33.1398 19.1996 33.6498 19.1996C34.1598 19.1996 34.5898 19.6196 34.5898 20.1296C34.5898 20.6396 34.1698 21.0696 33.6498 21.0696ZM39.4798 23.9296C38.9698 23.9296 38.5498 23.5096 38.5498 22.9996C38.5498 22.4896 38.9698 22.0596 39.4798 22.0596C39.9898 22.0596 40.4198 22.4796 40.4198 22.9996C40.4198 23.5196 39.9998 23.9296 39.4798 23.9296ZM45.3098 17.8496C44.7898 17.8496 44.3698 17.4296 44.3698 16.9196C44.3698 16.4096 44.7898 15.9796 45.3098 15.9796C45.8298 15.9796 46.2398 16.3996 46.2398 16.9196C46.2398 17.4396 45.8198 17.8496 45.3098 17.8496Z" fill="#5A5BB5"/>
<path fill-rule="evenodd" clip-rule="evenodd" d="M47.5702 22.3902V31.5402C47.2902 31.6102 46.7102 31.8102 46.3502 32.3802C46.3302 32.4202 46.2402 32.5602 46.1502 32.7802C46.1702 32.7402 46.1702 32.7002 46.1902 32.6602V23.0802H44.4302V35.7402C44.7102 35.7602 44.9802 35.7202 45.2502 35.5802L46.4802 34.9202C46.4402 35.0102 46.3802 35.0502 46.0402 35.2202C45.3902 35.5302 45.0702 35.6902 45.0002 35.7102C44.5402 35.8302 44.1702 35.7402 43.7502 35.6502C43.1702 35.5202 43.0202 35.3502 42.4502 35.1102C42.6502 35.1902 42.8502 35.2702 43.0502 35.3502V22.3902C43.0502 22.0102 43.3602 21.7002 43.7402 21.7002H46.8802C47.2602 21.7002 47.5702 22.0102 47.5702 22.3902Z" fill="#5A5BB5"/>
<path fill-rule="evenodd" clip-rule="evenodd" d="M41.7402 28.65V34.83C41.2902 34.67 40.8702 34.54 40.3602 34.48V29.34H38.6002V34.5C38.7502 34.47 38.8902 34.45 39.0302 34.45C38.8802 34.47 38.7602 34.49 38.6702 34.5C38.4702 34.53 37.9002 34.63 37.2202 34.92V28.65C37.2202 28.27 37.5302 27.96 37.9102 27.96H41.0502C41.4302 27.96 41.7402 28.27 41.7402 28.65Z" fill="#5A5BB5"/>
<path fill-rule="evenodd" clip-rule="evenodd" d="M36.2998 35.4103C36.0198 35.4003 35.8398 35.2203 35.6498 35.0803C35.3098 34.8303 34.9298 34.7103 34.5298 34.6703V27.2003H32.7798V34.6703C32.1498 34.7403 31.5598 34.8703 31.3198 34.9703C30.9398 35.1203 30.8198 35.1203 30.5698 35.1203C30.8398 35.0703 31.1198 35.0003 31.3998 34.9303V26.5103C31.3998 26.1303 31.6998 25.8203 32.0898 25.8203H35.2198C35.5998 25.8203 35.9098 26.1303 35.9098 26.5103V35.2003C36.0398 35.2603 36.1698 35.3303 36.2998 35.4103Z" fill="#5A5BB5"/>
<path fill-rule="evenodd" clip-rule="evenodd" d="M30.0899 31.7896V35.1896C30.0899 35.1896 30.0699 35.1996 30.0599 35.1996C29.7799 35.2896 29.1699 35.1896 28.7599 35.0696C28.5499 34.9996 28.3099 34.8896 27.8299 34.6496C27.5999 34.5396 27.3899 34.4396 27.2299 34.3496L28.4999 34.9296C28.4999 34.9296 28.5399 34.9496 28.5499 34.9596C28.5999 34.9896 28.6599 35.0096 28.7099 35.0396V32.4796H27.6399C27.6399 32.3496 27.6199 32.1896 27.5599 32.0296C27.3599 31.4496 26.8499 31.1896 26.6299 31.0996H29.3999C29.7799 31.0996 30.0899 31.4096 30.0899 31.7896Z" fill="#5A5BB5"/>
</g>
<defs>
<clipPath id="clip0_4877_20689">
<rect width="72" height="72" fill="white"/>
</clipPath>
</defs>
</svg>
