<svg width="72" height="72" viewBox="0 0 72 72" fill="none" xmlns="http://www.w3.org/2000/svg">
<g clip-path="url(#clip0_4877_20791)">
<path d="M64 0.5H8C3.85786 0.5 0.5 3.85786 0.5 8V64C0.5 68.1421 3.85786 71.5 8 71.5H64C68.1421 71.5 71.5 68.1421 71.5 64V8C71.5 3.85786 68.1421 0.5 64 0.5Z" fill="#F9F9F9"/>
<path d="M64 0.5H8C3.85786 0.5 0.5 3.85786 0.5 8V64C0.5 68.1421 3.85786 71.5 8 71.5H64C68.1421 71.5 71.5 68.1421 71.5 64V8C71.5 3.85786 68.1421 0.5 64 0.5Z" stroke="#EDEDED"/>
<path d="M55.6102 17.3301H33.0102C32.0702 17.3301 31.3102 18.1001 31.3102 19.0401V22.2301C31.3102 22.2301 31.2502 22.1901 31.2202 22.1901L33.2502 24.1601L32.6802 23.5901V22.5801H55.9402V35.6601C55.9402 35.8401 55.7902 36.0001 55.6102 36.0001H33.3202L33.5002 36.3901L32.8102 37.3601C32.8802 37.3701 32.9502 37.3701 33.0102 37.3701H51.0302V41.9301H24.6202V40.8701L23.2502 40.6901V42.6201C23.2502 43.0001 23.5602 43.3001 23.9402 43.3001H51.7102C52.0902 43.3001 52.4002 43.0001 52.4002 42.6201V37.3701H53.0802V44.2901C53.0802 45.2701 52.2802 46.0601 51.3102 46.0601H24.3402C23.3702 46.0601 22.5802 45.2701 22.5802 44.2901V39.1701L21.2002 38.6401V44.2901C21.2002 46.0201 22.6102 47.4301 24.3402 47.4301H32.1302V49.9501H29.0902C27.5602 49.9501 26.3102 51.0101 26.3102 52.3101V53.9801C26.3102 54.3601 26.6202 54.6601 27.0002 54.6601H48.6502C49.0302 54.6601 49.3402 54.3601 49.3402 53.9801V52.3101C49.3402 51.0101 48.1002 49.9501 46.5602 49.9501H43.5202V47.4301H51.3102C53.0402 47.4301 54.4502 46.0201 54.4502 44.2901V37.3701H55.6102C56.5502 37.3701 57.3102 36.6001 57.3102 35.6601V19.0401C57.3102 18.1001 56.5502 17.3301 55.6102 17.3301ZM33.5002 47.4301H42.1502V49.9501H33.5002V47.4301ZM46.5602 51.3201C47.3202 51.3201 47.9702 51.7701 47.9702 52.3101V53.2901H27.6802V52.3101C27.6802 51.7701 28.3302 51.3201 29.0902 51.3201H46.5602ZM55.9402 21.2101H32.6802V19.0401C32.6802 18.8601 32.8302 18.7001 33.0102 18.7001H55.6102C55.7902 18.7001 55.9402 18.8601 55.9402 19.0401V21.2101Z" fill="#010211"/>
<path d="M35.8599 19.9604C35.8599 20.2904 35.5899 20.5504 35.2599 20.5504C34.9299 20.5504 34.6699 20.2904 34.6699 19.9604C34.6699 19.6304 34.9299 19.3604 35.2599 19.3604C35.5899 19.3604 35.8599 19.6304 35.8599 19.9604Z" fill="#5A5BB5"/>
<path d="M38.15 19.9604C38.15 20.2904 37.88 20.5504 37.55 20.5504C37.22 20.5504 36.96 20.2904 36.96 19.9604C36.96 19.6304 37.22 19.3604 37.55 19.3604C37.88 19.3604 38.15 19.6304 38.15 19.9604Z" fill="#5A5BB5"/>
<path d="M40.4402 19.9604C40.4402 20.2904 40.1702 20.5504 39.8402 20.5504C39.5102 20.5504 39.2402 20.2904 39.2402 19.9604C39.2402 19.6304 39.5102 19.3604 39.8402 19.3604C40.1702 19.3604 40.4402 19.6304 40.4402 19.9604Z" fill="#5A5BB5"/>
<path d="M54.51 33.8001C54.51 34.1801 54.2 34.4901 53.82 34.4901H40.9C40.52 34.4901 40.21 34.1801 40.21 33.8001C40.21 33.4201 40.52 33.1201 40.9 33.1201H53.82C54.2 33.1201 54.51 33.4201 54.51 33.8001Z" fill="#5A5BB5"/>
<path d="M39.3098 33.8001C39.3098 34.1801 38.9998 34.4901 38.6198 34.4901H36.7398C36.3598 34.4901 36.0498 34.1801 36.0498 33.8001C36.0498 33.4201 36.3598 33.1201 36.7398 33.1201H38.6198C38.9998 33.1201 39.3098 33.4201 39.3098 33.8001Z" fill="#5A5BB5"/>
<path d="M39.3098 31.23C39.3098 31.61 38.9998 31.91 38.6198 31.91H36.7398C36.3598 31.91 36.0498 31.61 36.0498 31.23C36.0498 30.85 36.3598 30.54 36.7398 30.54H38.6198C38.9998 30.54 39.3098 30.85 39.3098 31.23Z" fill="#5A5BB5"/>
<path d="M54.51 31.23C54.51 31.61 54.2 31.91 53.82 31.91H40.9C40.52 31.91 40.21 31.61 40.21 31.23C40.21 30.85 40.52 30.54 40.9 30.54H53.82C54.2 30.54 54.51 30.85 54.51 31.23Z" fill="#5A5BB5"/>
<path d="M53.8199 23.9902H46.7999C46.4199 23.9902 46.1099 24.3002 46.1099 24.6802V27.8902C46.1099 28.2702 46.4199 28.5802 46.7999 28.5802H53.8199C54.1999 28.5802 54.5099 28.2702 54.5099 27.8902V24.6802C54.5099 24.3002 54.1999 23.9902 53.8199 23.9902ZM53.1299 27.2102H47.4899V25.3702H53.1299V27.2102Z" fill="#5A5BB5"/>
<path d="M43.7598 23.9902H36.7398C36.3598 23.9902 36.0498 24.3002 36.0498 24.6802V27.8902C36.0498 28.2702 36.3598 28.5802 36.7398 28.5802H43.7598C44.1398 28.5802 44.4498 28.2702 44.4498 27.8902V24.6802C44.4498 24.3002 44.1398 23.9902 43.7598 23.9902ZM43.0698 27.2102H37.4298V25.3702H43.0698V27.2102Z" fill="#5A5BB5"/>
<path d="M34.9099 28.59L33.6399 28.1C33.4499 27.43 33.1799 26.78 32.8399 26.16L33.3899 24.92C33.5099 24.66 33.4499 24.36 33.2499 24.16L31.2199 22.19H31.2099C31.0299 22.09 30.8299 22.09 30.6399 22.17L29.3999 22.72C28.7799 22.38 28.1299 22.11 27.4599 21.92L26.9699 20.65C26.8699 20.38 26.6099 20.21 26.3299 20.21H23.7199C23.4299 20.21 23.1799 20.38 23.0699 20.65L22.5899 21.92C21.9099 22.11 21.2599 22.38 20.6499 22.72L19.3999 22.17C19.1399 22.05 18.8399 22.11 18.6399 22.31L16.7899 24.16C16.5899 24.36 16.5399 24.66 16.6499 24.92L17.1999 26.16C16.8599 26.78 16.5899 27.43 16.3999 28.1L15.1299 28.59C14.8599 28.69 14.6899 28.95 14.6899 29.23V31.84C14.6899 32.13 14.8599 32.38 15.1299 32.49L16.3999 32.97C16.5899 33.65 16.8599 34.3 17.1999 34.91L16.6499 36.16C16.5299 36.42 16.5899 36.72 16.7899 36.92L18.6399 38.77C18.8399 38.97 19.1399 39.03 19.3999 38.91L20.6499 38.36C20.8199 38.45 20.9899 38.54 21.1699 38.63H21.1999L22.5799 39.17C22.5799 39.17 22.5799 39.16 22.5899 39.16V39.18L23.0699 40.43C23.1099 40.53 23.1699 40.62 23.2499 40.69L24.6199 40.87H26.3299C26.6099 40.87 26.8699 40.7 26.9699 40.43L27.4599 39.16C28.1299 38.97 28.7799 38.7 29.3999 38.36L30.6399 38.91C30.8999 39.03 31.1999 38.97 31.3999 38.77L32.8099 37.36L33.4999 36.39L33.3199 36L33.2399 35.82L32.8399 34.91C33.1799 34.3 33.4499 33.65 33.6399 32.97L34.9099 32.49C35.1799 32.38 35.3499 32.13 35.3499 31.84V29.23C35.3499 28.95 35.1799 28.69 34.9099 28.59ZM33.9799 31.37L32.8199 31.82C32.6099 31.9 32.4499 32.08 32.3999 32.3C32.2099 33.08 31.9099 33.82 31.4799 34.51C31.3599 34.7 31.3499 34.94 31.4399 35.15L31.9399 36.28L30.7699 37.46L29.6299 36.96C29.4199 36.87 29.1899 36.88 28.9899 37C28.3099 37.42 27.5599 37.73 26.7799 37.92C26.5599 37.97 26.3799 38.13 26.2999 38.34L25.8499 39.5H24.1899L23.7399 38.34C23.6599 38.13 23.4799 37.97 23.2599 37.92C22.4799 37.73 21.7399 37.42 21.0499 37C20.8599 36.88 20.6199 36.87 20.4099 36.96L19.2799 37.46L18.0999 36.28L18.5999 35.15C18.6899 34.94 18.6799 34.7 18.5599 34.51C18.1399 33.82 17.8299 33.08 17.6399 32.3C17.5899 32.08 17.4299 31.9 17.2199 31.82L16.0599 31.37V29.71L17.2199 29.26C17.4299 29.18 17.5899 29 17.6399 28.78C17.8299 28 18.1399 27.25 18.5599 26.57C18.6799 26.38 18.6899 26.14 18.5999 25.93L18.0999 24.79L19.2799 23.62L20.4099 24.12C20.6199 24.21 20.8599 24.2 21.0499 24.08C21.7399 23.66 22.4799 23.35 23.2599 23.16C23.4799 23.11 23.6599 22.95 23.7399 22.74L24.1899 21.58H25.8499L26.2999 22.74C26.3799 22.95 26.5599 23.11 26.7799 23.16C27.5599 23.35 28.3099 23.66 28.9899 24.08C29.1799 24.2 29.4199 24.21 29.6299 24.12L30.7699 23.62L31.9399 24.79L31.4399 25.93C31.3499 26.14 31.3599 26.38 31.4799 26.57C31.9099 27.25 32.2099 28 32.3999 28.78C32.4499 29 32.6099 29.18 32.8199 29.26L33.9799 29.71V31.37Z" fill="#5A5BB5"/>
<path d="M25.0199 24.6504C21.7699 24.6504 19.1299 27.2904 19.1299 30.5404C19.1299 33.7904 21.7699 36.4304 25.0199 36.4304C28.2699 36.4304 30.9099 33.7904 30.9099 30.5404C30.9099 27.2904 28.2699 24.6504 25.0199 24.6504ZM25.0199 35.0604C22.5299 35.0604 20.4999 33.0304 20.4999 30.5404C20.4999 28.0504 22.5299 26.0204 25.0199 26.0204C27.5099 26.0204 29.5399 28.0504 29.5399 30.5404C29.5399 33.0304 27.5099 35.0604 25.0199 35.0604Z" fill="#5A5BB5"/>
</g>
<defs>
<clipPath id="clip0_4877_20791">
<rect width="72" height="72" fill="white"/>
</clipPath>
</defs>
</svg>
