<svg width="72" height="72" viewBox="0 0 72 72" fill="none" xmlns="http://www.w3.org/2000/svg">
<g clip-path="url(#clip0_4896_21616)">
<path d="M64 0.5H8C3.85786 0.5 0.5 3.85786 0.5 8V64C0.5 68.1421 3.85786 71.5 8 71.5H64C68.1421 71.5 71.5 68.1421 71.5 64V8C71.5 3.85786 68.1421 0.5 64 0.5Z" fill="#F9F9F9"/>
<path d="M64 0.5H8C3.85786 0.5 0.5 3.85786 0.5 8V64C0.5 68.1421 3.85786 71.5 8 71.5H64C68.1421 71.5 71.5 68.1421 71.5 64V8C71.5 3.85786 68.1421 0.5 64 0.5Z" stroke="#EDEDED"/>
<path fill-rule="evenodd" clip-rule="evenodd" d="M53.6363 19H52.5996C52.2199 19 51.9121 19.3079 51.9121 19.6875C51.9121 20.0672 52.2199 20.375 52.5996 20.375H53.6363C54.9998 20.375 56.1091 21.4843 56.1091 22.8478V44.5892C56.1091 45.9527 54.9998 47.062 53.6363 47.062H18.8478C17.4843 47.062 16.375 45.9527 16.375 44.5892V22.8478C16.375 21.4843 17.4843 20.375 18.8478 20.375H19.8845C20.2642 20.375 20.572 20.0672 20.572 19.6875C20.572 19.3079 20.2642 19 19.8845 19H18.8478C16.7262 19 15 20.7262 15 22.8478V44.5892C15 46.7108 16.7262 48.437 18.8478 48.437H29.0945V52.083H24.9716C23.1064 52.083 21.589 53.3574 21.589 54.9239V57.0773C21.589 57.457 21.8968 57.7648 22.2765 57.7648H50.2076C50.5872 57.7648 50.8951 57.457 50.8951 57.0773V54.9239C50.8951 53.3574 49.3777 52.083 47.5126 52.083H43.3896V48.437H53.6363C55.7579 48.437 57.4841 46.7108 57.4841 44.5892V22.8478C57.4842 20.7262 55.758 19 53.6363 19ZM49.5201 54.9239V56.3898H22.964V54.9239C22.964 54.1293 23.8834 53.458 24.9716 53.458H47.5125C48.6007 53.4581 49.5201 54.1293 49.5201 54.9239ZM42.0146 52.0831H30.4695V48.4371H42.0146V52.0831ZM19.0177 23.0178V41.7387H53.4663V23.0178H52.5995C52.2198 23.0178 51.912 22.7099 51.912 22.3303C51.912 21.9506 52.2198 21.6428 52.5995 21.6428H53.7155C54.3363 21.6428 54.8413 22.1478 54.8413 22.7686V42.4262C54.8413 42.8058 54.5335 43.1137 54.1538 43.1137H18.3302C17.9505 43.1137 17.6427 42.8058 17.6427 42.4262V22.7686C17.6427 22.1478 18.1477 21.6428 18.7685 21.6428H19.8845C20.2642 21.6428 20.572 21.9506 20.572 22.3303C20.572 22.7099 20.2642 23.0178 19.8845 23.0178H19.0177Z" fill="#010211"/>
<path fill-rule="evenodd" clip-rule="evenodd" d="M50.6215 39.9013H21.6876C21.3078 39.9013 21.0001 39.5935 21 39.2138V20.3553V16.6625C21 15.7459 21.7459 15 22.6625 15H49.6464C50.5631 15 51.3089 15.7459 51.309 16.6625V20.3552V39.2138C51.309 39.5935 51.0011 39.9013 50.6215 39.9013ZM22.3751 38.5263V21.0427H49.934V38.5263L22.3751 38.5263ZM22.3751 16.6625C22.3751 16.5067 22.5067 16.375 22.6626 16.375H49.6464C49.8022 16.375 49.934 16.5067 49.934 16.6625V19.6678H22.3751V16.6625Z" fill="#5A5BB5"/>
<path fill-rule="evenodd" clip-rule="evenodd" d="M38.839 26.5099L34.6607 33.7467C34.5334 33.9673 34.3023 34.0906 34.0646 34.0906C33.948 34.0906 33.8298 34.0609 33.7215 33.9984C33.3927 33.8085 33.28 33.388 33.4699 33.0592L37.6482 25.8224C37.838 25.4936 38.2586 25.3807 38.5873 25.5707C38.9162 25.7606 39.0288 26.181 38.839 26.5099Z" fill="#5A5BB5"/>
<path fill-rule="evenodd" clip-rule="evenodd" d="M43.9874 30.38C44.2001 30.2571 44.3312 30.0301 44.3312 29.7845C44.3312 29.5389 44.2002 29.3119 43.9873 29.1891L40.0656 26.9249C39.7368 26.7349 39.3163 26.8476 39.1265 27.1765C38.9366 27.5053 39.0493 27.9258 39.3781 28.1156L42.2686 29.7845L39.3781 31.4533C39.0493 31.6432 38.9366 32.0637 39.1265 32.3925C39.2538 32.613 39.4849 32.7363 39.7225 32.7363C39.8392 32.7363 39.9574 32.7066 40.0657 32.6441L43.9874 30.38Z" fill="#5A5BB5"/>
<path fill-rule="evenodd" clip-rule="evenodd" d="M32.9307 28.1156L30.0403 29.7845L32.9307 31.4533C33.2595 31.6432 33.3722 32.0637 33.1823 32.3925C33.055 32.613 32.8239 32.7363 32.5863 32.7363C32.4696 32.7363 32.3514 32.7066 32.2431 32.6441L28.3214 30.3799C28.1088 30.2571 27.9777 30.0302 27.9777 29.7845C27.9777 29.5388 28.1088 29.3119 28.3214 29.1891L32.2431 26.9249C32.5719 26.7351 32.9924 26.8477 33.1822 27.1765C33.3722 27.5054 33.2595 27.9258 32.9307 28.1156Z" fill="#5A5BB5"/>
<path fill-rule="evenodd" clip-rule="evenodd" d="M38.839 26.5099L34.6607 33.7467C34.5334 33.9673 34.3023 34.0906 34.0646 34.0906C33.948 34.0906 33.8298 34.0609 33.7215 33.9984C33.3927 33.8085 33.28 33.388 33.4699 33.0592L37.6482 25.8224C37.838 25.4936 38.2586 25.3807 38.5873 25.5707C38.9162 25.7606 39.0288 26.181 38.839 26.5099Z" fill="#5A5BB5"/>
<path fill-rule="evenodd" clip-rule="evenodd" d="M31.0133 18.9815C31.542 18.9815 31.9734 18.5502 31.9734 18.0213C31.9734 17.4925 31.542 17.0612 31.0133 17.0611C30.4844 17.0611 30.0531 17.4925 30.0531 18.0213C30.0531 18.5502 30.4844 18.9815 31.0133 18.9815Z" fill="#5A5BB5"/>
<path fill-rule="evenodd" clip-rule="evenodd" d="M27.8951 18.9815C28.424 18.9815 28.8553 18.5502 28.8553 18.0213C28.8553 17.4925 28.424 17.0612 27.8951 17.0611C27.3663 17.0611 26.935 17.4925 26.935 18.0213C26.935 18.5502 27.3663 18.9815 27.8951 18.9815Z" fill="#5A5BB5"/>
<path fill-rule="evenodd" clip-rule="evenodd" d="M24.777 18.9815C25.3059 18.9815 25.7372 18.5502 25.7372 18.0213C25.7372 17.4925 25.3059 17.0612 24.777 17.0611C24.2483 17.0611 23.8169 17.4925 23.8169 18.0213C23.8169 18.5502 24.2483 18.9815 24.777 18.9815Z" fill="#5A5BB5"/>
<path fill-rule="evenodd" clip-rule="evenodd" d="M48.1532 18.7089C48.5328 18.7089 48.8407 18.4011 48.8407 18.0214C48.8407 17.6417 48.5328 17.3339 48.1532 17.3339H40.0059C39.6263 17.3339 39.3184 17.6417 39.3184 18.0214C39.3184 18.4011 39.6263 18.7089 40.0059 18.7089H48.1532Z" fill="#5A5BB5"/>
</g>
<defs>
<clipPath id="clip0_4896_21616">
<rect width="72" height="72" fill="white"/>
</clipPath>
</defs>
</svg>
