<svg width="72" height="72" viewBox="0 0 72 72" fill="none" xmlns="http://www.w3.org/2000/svg">
<g clip-path="url(#clip0_4877_20750)">
<path d="M64 0.5H8C3.85786 0.5 0.5 3.85786 0.5 8V64C0.5 68.1421 3.85786 71.5 8 71.5H64C68.1421 71.5 71.5 68.1421 71.5 64V8C71.5 3.85786 68.1421 0.5 64 0.5Z" fill="#F9F9F9"/>
<path d="M64 0.5H8C3.85786 0.5 0.5 3.85786 0.5 8V64C0.5 68.1421 3.85786 71.5 8 71.5H64C68.1421 71.5 71.5 68.1421 71.5 64V8C71.5 3.85786 68.1421 0.5 64 0.5Z" stroke="#EDEDED"/>
<path d="M56.8701 20.1699L52.3101 15.6099C52.0201 15.3299 51.6601 15.1699 51.2501 15.1699H26.3501C25.5301 15.1699 24.8501 15.8499 24.8501 16.6699V30.9499H26.2301V16.6699C26.2301 16.6099 26.2901 16.5499 26.3501 16.5499H50.9001V20.4899C50.9001 21.0899 51.3901 21.5799 51.9901 21.5799H55.9401V55.3299C55.9401 55.3999 55.8801 55.4599 55.8101 55.4599H54.3701V38.8699C54.3701 38.4899 54.0701 38.1799 53.6901 38.1799H49.8501C49.4701 38.1799 49.1601 38.4899 49.1601 38.8699V55.4599H47.2501V45.4999C47.2501 45.1199 46.9401 44.8099 46.5601 44.8099H42.7301C42.3501 44.8099 42.0401 45.1199 42.0401 45.4999V55.4599H40.1301V43.8999C40.1301 43.5199 39.8201 43.2099 39.4401 43.2099H36.4001V44.5899H38.7501V55.4599H35.7701V55.4799C35.6601 55.6099 35.1501 56.2899 34.4201 56.8299H55.8101C56.6401 56.8299 57.3101 56.1599 57.3101 55.3299V21.2299C57.3101 20.8299 57.1601 20.4599 56.8701 20.1699ZM52.2801 20.2099V17.5199L54.9601 20.2099H52.2801ZM45.8801 55.4599H43.4101V46.1899H45.8801V55.4599ZM53.0001 55.4599H50.5401V39.5499H53.0001V55.4599Z" fill="#010211"/>
<path d="M52.4499 34.3298L52.1899 36.6398C52.1499 36.9898 51.8599 37.2498 51.5099 37.2498H51.4299C51.0599 37.2098 50.7799 36.8698 50.8299 36.4898L50.8699 36.1398L45.1299 41.9198C44.9999 42.0498 44.8299 42.1198 44.6399 42.1198C44.5699 42.1198 44.4999 42.1198 44.4299 42.0898L37.6599 39.8898L36.3999 40.8698V39.1298L37.0999 38.5898C37.2799 38.4498 37.5199 38.3998 37.7299 38.4698L44.4499 40.6498L49.9599 35.0998L49.5099 35.1398C49.1299 35.1698 48.7999 34.8898 48.7699 34.5198C48.7299 34.1398 49.0099 33.7998 49.3899 33.7698L51.7099 33.5698C51.9099 33.5498 52.1199 33.6198 52.2599 33.7698C52.3999 33.9198 52.4799 34.1198 52.4499 34.3298Z" fill="#010211"/>
<path d="M51.6999 24.7503C51.6999 25.1303 51.3899 25.4403 51.0099 25.4403H41.7999C41.4199 25.4403 41.1099 25.1303 41.1099 24.7503C41.1099 24.3703 41.4199 24.0703 41.7999 24.0703H51.0099C51.3899 24.0703 51.6999 24.3703 51.6999 24.7503Z" fill="#010211"/>
<path d="M48.9899 21.2904C48.9899 21.6704 48.6799 21.9804 48.2999 21.9804H41.7999C41.4199 21.9804 41.1099 21.6704 41.1099 21.2904C41.1099 20.9104 41.4199 20.6104 41.7999 20.6104H48.2999C48.6799 20.6104 48.9899 20.9104 48.9899 21.2904Z" fill="#010211"/>
<path d="M33.8201 17.2998C30.6601 17.2998 28.1001 19.8698 28.1001 23.0198C28.1001 26.1698 30.6601 28.7498 33.8201 28.7498C36.9801 28.7498 39.5401 26.1798 39.5401 23.0198C39.5401 19.8598 36.9701 17.2998 33.8201 17.2998ZM33.8201 27.3698C31.4201 27.3698 29.4701 25.4198 29.4701 23.0198C29.4701 20.6198 31.4201 18.6798 33.8201 18.6798C36.2201 18.6798 38.1701 20.6298 38.1701 23.0198C38.1701 25.4098 36.2201 27.3698 33.8201 27.3698Z" fill="#5A5BB5"/>
<path d="M35.72 25.4304C35.44 25.7604 35 26.0004 34.51 26.1104V26.2104C34.51 26.5904 34.2 26.9004 33.82 26.9004C33.44 26.9004 33.13 26.5904 33.13 26.2104V26.1004C32.33 25.8904 31.73 25.3204 31.54 24.5404C31.44 24.1804 31.67 23.8004 32.04 23.7104C32.41 23.6204 32.78 23.8404 32.87 24.2104C32.98 24.6704 33.48 24.8204 33.87 24.8104C34.21 24.8104 34.54 24.6904 34.68 24.5304C34.72 24.4804 34.76 24.4204 34.74 24.2904C34.73 24.1504 34.69 23.8404 33.71 23.6804C32.01 23.4004 31.71 22.4304 31.68 21.8704C31.64 20.9804 32.22 20.2304 33.13 19.9604V19.8404C33.13 19.4604 33.44 19.1504 33.82 19.1504C34.2 19.1504 34.51 19.4604 34.51 19.8404V19.9604C35.09 20.1204 35.64 20.5204 35.94 21.2304C36.08 21.5804 35.92 21.9804 35.57 22.1304C35.22 22.2804 34.81 22.1104 34.67 21.7604C34.44 21.2304 33.88 21.2004 33.59 21.2604C33.46 21.2904 33.04 21.4204 33.06 21.8104C33.06 21.9004 33.08 22.1904 33.94 22.3304C35.26 22.5404 35.99 23.1504 36.11 24.1204C36.17 24.6104 36.03 25.0604 35.72 25.4304Z" fill="#5A5BB5"/>
<path d="M33.0799 30.9502H18.0099C16.1799 30.9502 14.6899 32.4402 14.6899 34.2702V53.5102C14.6899 55.3402 16.1799 56.8302 18.0099 56.8302H34.4199C35.1499 56.2902 35.6599 55.6102 35.7599 55.4802V55.4602C36.1599 54.9102 36.3999 54.2402 36.3999 53.5102V34.2702C36.3999 32.4402 34.9099 30.9502 33.0799 30.9502ZM35.0199 53.5102C35.0199 54.5902 34.1499 55.4602 33.0799 55.4602H18.0099C16.9299 55.4602 16.0599 54.5902 16.0599 53.5102V34.2702C16.0599 33.1902 16.9299 32.3202 18.0099 32.3202H33.0799C34.1499 32.3202 35.0199 33.1902 35.0199 34.2702V53.5102Z" fill="#5A5BB5"/>
<path d="M31.9701 49.3896H29.9601C29.3301 49.3896 28.8101 49.9096 28.8101 50.5396V51.2397C28.8101 51.8697 29.3301 52.3896 29.9601 52.3896H31.9701C32.6101 52.3896 33.1301 51.8697 33.1301 51.2397V50.5396C33.1301 49.9096 32.6101 49.3896 31.9701 49.3896ZM31.8901 51.1696H30.0201V50.6196H31.8901V51.1696Z" fill="#5A5BB5"/>
<path d="M26.5501 49.3896H24.5401C23.9101 49.3896 23.3901 49.9096 23.3901 50.5396V51.2397C23.3901 51.8697 23.9101 52.3896 24.5401 52.3896H26.5501C27.1901 52.3896 27.7101 51.8697 27.7101 51.2397V50.5396C27.7101 49.9096 27.1901 49.3896 26.5501 49.3896ZM26.4801 51.1696H24.6101V50.6196H26.4801V51.1696Z" fill="#5A5BB5"/>
<path d="M21.1302 49.3896H19.1202C18.4902 49.3896 17.9702 49.9096 17.9702 50.5396V51.2397C17.9702 51.8697 18.4902 52.3896 19.1202 52.3896H21.1302C21.7702 52.3896 22.2902 51.8697 22.2902 51.2397V50.5396C22.2902 49.9096 21.7702 49.3896 21.1302 49.3896ZM21.0602 51.1696H19.1902V50.6196H21.0602V51.1696Z" fill="#5A5BB5"/>
<path d="M21.1302 45.6201H19.1202C18.4902 45.6201 17.9702 46.1401 17.9702 46.7701V47.4701C17.9702 48.1001 18.4902 48.6201 19.1202 48.6201H21.1302C21.7702 48.6201 22.2902 48.1001 22.2902 47.4701V46.7701C22.2902 46.1401 21.7702 45.6201 21.1302 45.6201ZM21.0602 47.4001H19.1902V46.8401H21.0602V47.4001Z" fill="#5A5BB5"/>
<path d="M26.5501 45.6201H24.5401C23.9101 45.6201 23.3901 46.1401 23.3901 46.7701V47.4701C23.3901 48.1001 23.9101 48.6201 24.5401 48.6201H26.5501C27.1901 48.6201 27.7101 48.1001 27.7101 47.4701V46.7701C27.7101 46.1401 27.1901 45.6201 26.5501 45.6201ZM26.4801 47.4001H24.6101V46.8401H26.4801V47.4001Z" fill="#5A5BB5"/>
<path d="M31.9701 45.6201H29.9601C29.3301 45.6201 28.8101 46.1401 28.8101 46.7701V47.4701C28.8101 48.1001 29.3301 48.6201 29.9601 48.6201H31.9701C32.6101 48.6201 33.1301 48.1001 33.1301 47.4701V46.7701C33.1301 46.1401 32.6101 45.6201 31.9701 45.6201ZM31.8901 47.4001H30.0201V46.8401H31.8901V47.4001Z" fill="#5A5BB5"/>
<path d="M31.9701 41.8398H29.9601C29.3301 41.8398 28.8101 42.3598 28.8101 42.9998V43.6898C28.8101 44.3298 29.3301 44.8498 29.9601 44.8498H31.9701C32.6101 44.8498 33.1301 44.3298 33.1301 43.6898V42.9998C33.1301 42.3598 32.6101 41.8398 31.9701 41.8398ZM31.8901 43.6198H30.0201V43.0698H31.8901V43.6198Z" fill="#5A5BB5"/>
<path d="M26.5501 41.8398H24.5401C23.9101 41.8398 23.3901 42.3598 23.3901 42.9998V43.6898C23.3901 44.3298 23.9101 44.8498 24.5401 44.8498H26.5501C27.1901 44.8498 27.7101 44.3298 27.7101 43.6898V42.9998C27.7101 42.3598 27.1901 41.8398 26.5501 41.8398ZM26.4801 43.6198H24.6101V43.0698H26.4801V43.6198Z" fill="#5A5BB5"/>
<path d="M21.1302 41.8398H19.1202C18.4902 41.8398 17.9702 42.3598 17.9702 42.9998V43.6898C17.9702 44.3298 18.4902 44.8498 19.1202 44.8498H21.1302C21.7702 44.8498 22.2902 44.3298 22.2902 43.6898V42.9998C22.2902 42.3598 21.7702 41.8398 21.1302 41.8398ZM21.0602 43.6198H19.1902V43.0698H21.0602V43.6198Z" fill="#5A5BB5"/>
<path d="M32.1998 34.7305H18.8798C18.1698 34.7305 17.5898 35.3105 17.5898 36.0205V38.3905C17.5898 39.1105 18.1698 39.6905 18.8798 39.6905H32.1998C32.9098 39.6905 33.4898 39.1105 33.4898 38.3905V36.0205C33.4898 35.3105 32.9098 34.7305 32.1998 34.7305ZM32.1198 38.3105H18.9698V36.1005H32.1198V38.3105Z" fill="#5A5BB5"/>
</g>
<defs>
<clipPath id="clip0_4877_20750">
<rect width="72" height="72" fill="white"/>
</clipPath>
</defs>
</svg>
