<svg width="1604" height="455" viewBox="0 0 1604 455" fill="none" xmlns="http://www.w3.org/2000/svg">
<path d="M395.586 427.359L395.399 427.467C394.917 427.751 394.43 428.03 393.948 428.303C364.054 445.441 329.973 454.494 295.28 454.494C254.725 454.494 215.741 442.369 182.535 419.436L182.048 419.095L206.94 386.188C233.015 403.945 263.556 413.329 295.28 413.329C321.286 413.329 346.863 406.903 369.594 394.69C370.766 394.06 371.937 393.415 373.093 392.754L395.586 427.359Z" fill="#5A5BB5"/>
<path d="M192.572 375.136L167.986 408.352C122.974 370.728 97.2158 315.817 97.2158 257.231C97.2158 255.455 97.2417 253.674 97.2936 251.893C102.424 247.527 108.924 242.835 117.019 238.359C124.477 234.235 132.629 230.668 141.352 227.7C139.491 237.394 138.548 247.289 138.548 257.231C138.548 302.66 158.19 345.43 192.572 375.136Z" fill="#5A5BB5"/>
<path d="M493.341 257.233C493.341 292.116 486.479 323.319 472.947 349.979C459.177 377.115 438.436 399.677 411.289 417.052L411.201 417.109L410.335 417.604L388.288 382.881C428.205 353.52 452.004 306.62 452.004 257.233C452.004 171.16 381.695 101.135 295.279 101.135C263.732 101.135 233.724 110.266 207.878 127.636C209.085 118.752 211.34 110.338 214.621 102.487C219.441 90.9508 226.608 80.431 235.922 71.2173L239.207 67.9705C257.29 62.6539 276.056 59.9697 295.279 59.9697C322.017 59.9697 347.956 65.1883 372.372 75.4757C395.958 85.407 417.14 99.6329 435.331 117.746C453.517 135.863 467.801 156.96 477.772 180.446C488.102 204.768 493.341 230.603 493.341 257.233Z" fill="#5A5BB5"/>
<path d="M187.146 142.506C186.98 170.839 195.293 192.281 195.382 192.493L197.434 197.711L191.821 198.119C175.309 199.316 159.673 201.949 145.343 205.934C131.603 209.774 118.854 214.91 107.462 221.208C78.4545 237.245 66.2752 256.328 64.1295 259.993C63.8704 260.432 63.7408 260.685 63.7097 260.737L59.5221 268.923L56.1482 260.386L43.8496 229.146L144.943 152.164L188.457 34.5781L226.151 53.238L222.047 57.3003C210.878 68.3414 202.259 81.0084 196.439 94.9452C190.37 109.455 187.245 125.456 187.146 142.506Z" fill="#5A5BB5"/>
<path d="M65.8514 70.3242L179.767 0.505859L126.126 141.598L0 222.612L65.8514 70.3242Z" fill="#5A5BB5"/>
<path d="M295.278 365.598C241.606 365.598 197.937 322.105 197.937 268.644C197.937 215.183 241.606 171.695 295.278 171.695C348.95 171.695 392.62 215.189 392.62 268.644C392.62 322.099 348.95 365.598 295.278 365.598Z" fill="#5A5BB5"/>
<path d="M51.702 249.839C52.5623 251.584 53.4952 253.535 52.5727 255.336C51.22 254.196 50.9712 252.58 49.9658 251.45C49.007 250.371 48.2555 249.086 46.768 248.435C48.0637 250.959 50.4426 253.055 50.4374 255.894C50.3493 256.818 49.7118 257.205 48.8411 256.787C48.3229 256.457 48.2658 256.436 47.4055 256.049C47.2967 256.797 47.4936 257.391 47.561 258.108C47.6439 261.417 40.979 254.211 40.1394 252.931C41.1396 254.955 42.4975 257.164 43.9538 259.037C44.3166 259.502 44.6846 259.946 45.0577 260.359C43.7258 260.457 43.1298 260.411 42.3524 259.956C36.3975 254.918 30.0849 247.707 29.9139 239.732C27.7268 237.884 24.0367 236.728 24.8141 233.482C25.1043 232.418 24.6742 231.603 23.9952 230.751C19.4915 225.125 14.7752 219.658 10.5461 213.82C9.91383 212.948 9.84646 212.896 9.20898 211.771C10.9659 210.439 11.9662 209.686 14.3658 208.003C14.5524 208.488 15.5837 210.455 16.1849 211.208C17.0504 212.772 27.0064 225.63 29.831 228.815C30.3959 228.877 31.1577 228.944 31.9092 229.053C34.485 229.497 34.739 232.749 35.3972 234.844C42.4923 237.327 48.0637 243.211 51.7072 249.839H51.702Z" fill="#5A5BB5"/>
<path d="M691.668 368.02C670.748 368.02 652.506 363.68 636.943 355.002C621.636 346.068 609.645 333.56 600.971 317.479C592.551 301.397 588.342 282.508 588.342 260.811C588.342 239.114 592.551 220.353 600.971 204.527C609.645 188.445 621.636 175.938 636.943 167.003C652.251 158.069 670.365 153.602 691.285 153.602C711.696 153.602 729.427 158.069 744.479 167.003C759.532 175.938 771.14 188.7 779.304 205.292C787.723 221.884 791.933 241.667 791.933 264.64V276.127H647.659C648.424 292.463 652.761 304.588 660.67 312.501C668.834 320.414 679.55 324.371 692.816 324.371C702.511 324.371 710.547 322.329 716.926 318.244C723.559 314.16 728.279 307.906 731.085 299.483L788.871 302.929C783.514 323.35 772.161 339.303 754.812 350.79C737.463 362.277 716.415 368.02 691.668 368.02ZM647.659 240.901H732.999C732.233 225.841 728.024 214.609 720.37 207.207C712.971 199.804 703.276 196.103 691.285 196.103C679.294 196.103 669.345 200.059 661.436 207.973C653.782 215.63 649.19 226.606 647.659 240.901Z" fill="#5A5BB5"/>
<path d="M834.208 363.425V91.5744H892.377V347.727L860.231 314.415H1017.52V363.425H834.208Z" fill="#5A5BB5"/>
<path d="M1047.23 363.425V91.5744H1124.92L1194.18 289.528L1263.07 91.5744H1340.75V363.425H1282.58V187.297L1218.67 362.659H1168.92L1105.4 187.297V363.425H1047.23Z" fill="#5A5BB5"/>
<path d="M1498.96 369.551C1475.49 369.551 1455.33 365.595 1438.5 357.682C1421.66 349.769 1408.52 338.665 1399.08 324.371C1389.64 310.076 1384.28 293.229 1383.01 273.829L1441.56 271.149C1443.09 281.87 1446.15 291.059 1450.74 298.717C1455.59 306.12 1461.97 311.735 1469.88 315.564C1478.04 319.393 1487.99 321.307 1499.73 321.307C1509.42 321.307 1517.59 320.159 1524.22 317.861C1531.11 315.564 1536.34 312.118 1539.91 307.523C1543.48 302.674 1545.27 296.803 1545.27 289.911C1545.27 283.529 1543.74 278.041 1540.67 273.446C1537.61 268.597 1531.75 264.257 1523.07 260.428C1514.4 256.344 1501.64 252.388 1484.8 248.559C1461.59 243.198 1442.83 237.2 1428.55 230.563C1414.51 223.926 1404.31 215.63 1397.93 205.675C1391.55 195.465 1388.36 182.702 1388.36 167.386C1388.36 151.05 1392.32 136.755 1400.23 124.503C1408.39 112.25 1420.13 102.678 1435.44 95.7862C1450.74 88.8942 1468.98 85.4482 1490.16 85.4482C1512.61 85.4482 1531.62 89.4047 1547.18 97.3178C1562.74 105.231 1574.86 116.079 1583.54 129.863C1592.47 143.647 1597.82 159.473 1599.61 177.341L1541.44 180.405C1540.67 170.96 1538.12 162.792 1533.79 155.9C1529.45 148.752 1523.58 143.264 1516.18 139.435C1508.78 135.607 1499.85 133.692 1489.39 133.692C1476.13 133.692 1465.67 136.628 1458.01 142.499C1450.62 148.37 1446.92 156.027 1446.92 165.472C1446.92 172.109 1448.57 177.724 1451.89 182.319C1455.46 186.658 1461.2 190.487 1469.11 193.806C1477.28 197.124 1488.76 200.315 1503.55 203.378C1528.81 208.483 1548.71 214.992 1563.25 222.905C1578.05 230.563 1588.51 239.752 1594.63 250.473C1600.76 261.194 1603.82 273.446 1603.82 287.23C1603.82 304.078 1599.48 318.755 1590.81 331.263C1582.39 343.515 1570.27 352.96 1554.45 359.596C1538.89 366.233 1520.39 369.551 1498.96 369.551Z" fill="#5A5BB5"/>
</svg>
