<svg width="48" height="48" viewBox="0 0 48 48" fill="none" xmlns="http://www.w3.org/2000/svg">
<path d="M30.03 39.3548C29.6406 39.3551 29.2672 39.51 28.9918 39.7853C28.7164 40.0605 28.5613 40.4338 28.5608 40.8232V45.0315C28.5613 45.4209 28.7164 45.7942 28.9918 46.0695C29.2672 46.3448 29.6406 46.4996 30.03 46.5H42.7837C43.1727 46.499 43.5454 46.3439 43.8202 46.0687C44.0951 45.7934 44.2496 45.4205 44.25 45.0315V40.8232C44.2496 40.4339 44.0948 40.0606 43.8194 39.7853C43.5441 39.51 43.1709 39.3551 42.7815 39.3548H42.4987V36.7785C42.4986 36.516 42.5654 36.2579 42.693 36.0285L43.368 34.818C43.6201 34.3664 43.7526 33.8577 43.7528 33.3405V24.6585C43.7522 24.1202 43.5381 23.6042 43.1574 23.2236C42.7768 22.8429 42.2608 22.6288 41.7225 22.6283H41.6175C41.3644 22.6279 41.1136 22.6753 40.878 22.7677C40.7225 22.4571 40.4901 22.1915 40.203 21.996V2.25C40.203 2.05109 40.124 1.86032 39.9833 1.71967C39.8427 1.57902 39.6519 1.5 39.453 1.5H4.5C4.30109 1.5 4.11032 1.57902 3.96967 1.71967C3.82902 1.86032 3.75 2.05109 3.75 2.25V33.1717C3.75 33.3707 3.82902 33.5614 3.96967 33.7021C4.11032 33.8427 4.30109 33.9217 4.5 33.9217H29.0692L30.5692 36.288C30.7249 36.5333 30.8074 36.818 30.807 37.1085V39.3548H30.03ZM42.75 45L30.0585 45.0315L30.0277 40.8548H31.5375C31.5442 40.8548 31.5495 40.8548 31.5563 40.8548H41.7487C41.7981 40.85 41.8469 40.8402 41.8942 40.8255H42.75V45ZM38.7067 3V7.0245H5.25V3H38.7067ZM5.25 8.5245H38.7067V21.6675C38.6134 21.6835 38.5212 21.7058 38.4308 21.7342C38.2986 21.3254 38.0404 20.9689 37.6932 20.7158C37.346 20.4626 36.9277 20.3258 36.498 20.325H36.2895C36.1102 20.3249 35.9316 20.3486 35.7585 20.3955V15.4072C35.7641 15.0959 35.7076 14.7865 35.5923 14.4973C35.4769 14.208 35.3052 13.9446 35.0869 13.7224C34.8687 13.5002 34.6084 13.3238 34.3213 13.2033C34.0341 13.0829 33.7258 13.0208 33.4144 13.0208C33.103 13.0208 32.7947 13.0829 32.5075 13.2033C32.2203 13.3238 31.96 13.5002 31.7418 13.7224C31.5236 13.9446 31.3518 14.208 31.2365 14.4973C31.1212 14.7865 31.0647 15.0959 31.0702 15.4072V15.9517H22.6012C22.4023 15.9517 22.2116 16.0308 22.0709 16.1714C21.9303 16.3121 21.8512 16.5028 21.8512 16.7017C21.8512 16.9007 21.9303 17.0914 22.0709 17.2321C22.2116 17.3727 22.4023 17.4517 22.6012 17.4517H31.0702V19.4475H29.4202C29.2213 19.4475 29.0306 19.5265 28.8899 19.6672C28.7493 19.8078 28.6702 19.9986 28.6702 20.1975C28.6702 20.3964 28.7493 20.5872 28.8899 20.7278C29.0306 20.8685 29.2213 20.9475 29.4202 20.9475H31.0702V21.8655C30.8324 21.7818 30.5821 21.7392 30.33 21.7395C29.7362 21.7403 29.1669 21.9766 28.747 22.3966C28.3272 22.8166 28.0911 23.3859 28.0905 23.9797V31.5C28.0924 31.8139 28.143 32.1256 28.2405 32.424H5.25V8.5245ZM31.8375 35.4847L29.8283 32.3175C29.6731 32.0731 29.5906 31.7895 29.5905 31.5V23.9797C29.5873 23.8806 29.6041 23.7818 29.6399 23.6893C29.6757 23.5968 29.7297 23.5124 29.7987 23.4412C29.8677 23.3699 29.9503 23.3133 30.0417 23.2746C30.133 23.2359 30.2312 23.2159 30.3304 23.2159C30.4296 23.2159 30.5278 23.2359 30.6191 23.2746C30.7104 23.3133 30.7931 23.3699 30.8621 23.4412C30.9311 23.5124 30.9851 23.5968 31.0208 23.6893C31.0566 23.7818 31.0734 23.8806 31.0702 23.9797V28.3965C31.0702 28.5954 31.1493 28.7862 31.2899 28.9268C31.4306 29.0675 31.6213 29.1465 31.8202 29.1465C32.0192 29.1465 32.2099 29.0675 32.3506 28.9268C32.4912 28.7862 32.5702 28.5954 32.5702 28.3965V15.4072C32.5669 15.2943 32.5862 15.1818 32.6271 15.0764C32.668 14.9711 32.7297 14.875 32.8084 14.7939C32.8871 14.7128 32.9813 14.6483 33.0854 14.6043C33.1895 14.5603 33.3014 14.5376 33.4144 14.5376C33.5274 14.5376 33.6393 14.5603 33.7434 14.6043C33.8474 14.6483 33.9416 14.7128 34.0204 14.7939C34.0991 14.875 34.1607 14.9711 34.2016 15.0764C34.2425 15.1818 34.2619 15.2943 34.2585 15.4072V25.26C34.2585 25.4589 34.3375 25.6497 34.4782 25.7903C34.6188 25.931 34.8096 26.01 35.0085 26.01C35.2074 26.01 35.3982 25.931 35.5388 25.7903C35.6795 25.6497 35.7585 25.4589 35.7585 25.26V22.359C35.7587 22.2182 35.8147 22.0833 35.9142 21.9837C36.0138 21.8842 36.1487 21.8282 36.2895 21.828H36.498C36.6388 21.8282 36.7737 21.8842 36.8733 21.9837C36.9728 22.0833 37.0288 22.2182 37.029 22.359V25.6785C37.029 25.8774 37.108 26.0682 37.2487 26.2088C37.3893 26.3495 37.5801 26.4285 37.779 26.4285C37.9779 26.4285 38.1687 26.3495 38.3093 26.2088C38.45 26.0682 38.529 25.8774 38.529 25.6785V23.6655C38.5342 23.5282 38.5923 23.3983 38.6913 23.303C38.7902 23.2077 38.9222 23.1545 39.0596 23.1545C39.197 23.1545 39.329 23.2077 39.428 23.303C39.5269 23.3983 39.5851 23.5282 39.5902 23.6655V26.25C39.5902 26.4489 39.6693 26.6397 39.8099 26.7803C39.9506 26.921 40.1413 27 40.3402 27C40.5392 27 40.7299 26.921 40.8706 26.7803C41.0112 26.6397 41.0902 26.4489 41.0902 26.25V24.6585C41.0904 24.5179 41.1464 24.3832 41.2458 24.2838C41.3452 24.1844 41.4799 24.1284 41.6205 24.1283H41.7255C41.8661 24.1284 42.0008 24.1844 42.1002 24.2838C42.1996 24.3832 42.2556 24.5179 42.2557 24.6585V33.3435C42.256 33.606 42.1891 33.8641 42.0615 34.0935L41.3865 35.3048C41.1343 35.7564 41.0018 36.265 41.0017 36.7822V39.3585H32.3085V37.1085C32.3088 36.5335 32.1454 35.9703 31.8375 35.4847Z" fill="#2A2B37"/>
<path d="M10.9704 20.8591C11.1775 20.9805 11.4132 21.0445 11.6533 21.0445C11.8933 21.0445 12.1291 20.9805 12.3361 20.8591L17.4886 17.8838C17.6964 17.7639 17.869 17.5914 17.9889 17.3836C18.1089 17.1759 18.172 16.9402 18.172 16.7003C18.172 16.4604 18.1089 16.2248 17.9889 16.017C17.869 15.8093 17.6964 15.6367 17.4886 15.5168L12.3361 12.5423C12.1285 12.4224 11.893 12.3592 11.6532 12.3591C11.4134 12.3591 11.1778 12.4222 10.9701 12.542C10.7625 12.6619 10.59 12.8344 10.4701 13.042C10.3502 13.2497 10.2871 13.4853 10.2871 13.7251V19.6748C10.2853 19.9152 10.3477 20.1517 10.4678 20.3598C10.5879 20.568 10.7614 20.7404 10.9704 20.8591ZM11.7871 13.9591L16.5384 16.7026L11.7871 19.4461V13.9591Z" fill="#2A2B37"/>
<path d="M6.24022 5.42995C6.32649 5.51963 6.43401 5.58609 6.5528 5.62318C6.67159 5.66026 6.79783 5.66676 6.9198 5.64208C7.04178 5.6174 7.15555 5.56234 7.25058 5.48199C7.34562 5.40165 7.41884 5.29862 7.46347 5.18245C7.50301 5.09264 7.52343 4.99558 7.52343 4.89745C7.52343 4.79932 7.50301 4.70226 7.46347 4.61245C7.42874 4.5199 7.3751 4.4356 7.30597 4.36495C7.1608 4.23107 6.97056 4.15674 6.77309 4.15674C6.57562 4.15674 6.38538 4.23107 6.24022 4.36495C6.17108 4.4356 6.11744 4.5199 6.08272 4.61245C6.04362 4.70238 6.02344 4.79939 6.02344 4.89745C6.02344 4.99551 6.04362 5.09252 6.08272 5.18245C6.11925 5.27409 6.17268 5.35804 6.24022 5.42995Z" fill="#2A2B37"/>
<path d="M9.35938 5.64739C9.4574 5.64638 9.55426 5.62599 9.64438 5.58739C9.73533 5.54953 9.81906 5.49625 9.89188 5.42989C10.0313 5.28772 10.1094 5.09653 10.1094 4.89739C10.1094 4.69825 10.0313 4.50706 9.89188 4.36489C9.81906 4.29854 9.73533 4.24525 9.64438 4.20739C9.55503 4.16661 9.45796 4.14551 9.35975 4.14551C9.26154 4.14551 9.16447 4.16661 9.07513 4.20739C8.98234 4.24165 8.89795 4.29535 8.82763 4.36489C8.75957 4.4364 8.70608 4.52046 8.67013 4.61239C8.63144 4.7025 8.6108 4.79933 8.60938 4.89739C8.61256 5.09602 8.69049 5.28616 8.82763 5.42989C8.97041 5.56792 9.16079 5.64579 9.35938 5.64739Z" fill="#2A2B37"/>
<path d="M11.5282 5.52004C11.5663 5.54992 11.6095 5.57277 11.6557 5.58754C11.7005 5.60919 11.7483 5.62434 11.7974 5.63254C11.847 5.64121 11.8971 5.64622 11.9474 5.64754C12.144 5.64583 12.3322 5.56785 12.4724 5.43004C12.5436 5.36084 12.6002 5.27805 12.6389 5.18659C12.6776 5.09512 12.6975 4.99684 12.6975 4.89754C12.6975 4.79824 12.6776 4.69995 12.6389 4.60848C12.6002 4.51702 12.5436 4.43424 12.4724 4.36504C12.4035 4.29739 12.3219 4.24389 12.2324 4.20754C12.0954 4.14754 11.9431 4.13181 11.7967 4.16254C11.7475 4.17073 11.6998 4.18589 11.6549 4.20754C11.6088 4.2223 11.5656 4.24516 11.5274 4.27504C11.4239 4.34209 11.3393 4.43448 11.2816 4.54342C11.2238 4.65236 11.1948 4.77426 11.1974 4.89754C11.1968 5.09678 11.275 5.28817 11.4149 5.43004C11.451 5.46205 11.4888 5.4921 11.5282 5.52004Z" fill="#2A2B37"/>
<path d="M22.5996 14.0078H29.4246C29.6235 14.0078 29.8143 13.9288 29.9549 13.7881C30.0956 13.6475 30.1746 13.4567 30.1746 13.2578C30.1746 13.0589 30.0956 12.8681 29.9549 12.7275C29.8143 12.5868 29.6235 12.5078 29.4246 12.5078H22.5996C22.4007 12.5078 22.2099 12.5868 22.0693 12.7275C21.9286 12.8681 21.8496 13.0589 21.8496 13.2578C21.8496 13.4567 21.9286 13.6475 22.0693 13.7881C22.2099 13.9288 22.4007 14.0078 22.5996 14.0078Z" fill="#2A2B37"/>
<path d="M26.0121 19.4497H22.5996C22.4007 19.4497 22.2099 19.5287 22.0693 19.6694C21.9286 19.81 21.8496 20.0008 21.8496 20.1997C21.8496 20.3986 21.9286 20.5894 22.0693 20.73C22.2099 20.8707 22.4007 20.9497 22.5996 20.9497H26.0121C26.211 20.9497 26.4018 20.8707 26.5424 20.73C26.6831 20.5894 26.7621 20.3986 26.7621 20.1997C26.7621 20.0008 26.6831 19.81 26.5424 19.6694C26.4018 19.5287 26.211 19.4497 26.0121 19.4497Z" fill="#2A2B37"/>
<path d="M21.0634 24.213H12.3199C12.1779 23.9026 11.9498 23.6394 11.6626 23.4549C11.3754 23.2705 11.0412 23.1724 10.6999 23.1724C10.3585 23.1724 10.0243 23.2705 9.73713 23.4549C9.44992 23.6394 9.22178 23.9026 9.07986 24.213H7.72461C7.5257 24.213 7.33493 24.2921 7.19428 24.4327C7.05363 24.5734 6.97461 24.7641 6.97461 24.963C6.97461 25.162 7.05363 25.3527 7.19428 25.4934C7.33493 25.634 7.5257 25.713 7.72461 25.713H9.07911C9.22103 26.0235 9.44917 26.2866 9.73638 26.4711C10.0236 26.6556 10.3578 26.7537 10.6991 26.7537C11.0405 26.7537 11.3746 26.6556 11.6618 26.4711C11.949 26.2866 12.1772 26.0235 12.3191 25.713H21.0634C21.2623 25.713 21.453 25.634 21.5937 25.4934C21.7343 25.3527 21.8134 25.162 21.8134 24.963C21.8134 24.7641 21.7343 24.5734 21.5937 24.4327C21.453 24.2921 21.2623 24.213 21.0634 24.213Z" fill="#2A2B37"/>
</svg>
