<svg width="48" height="48" viewBox="0 0 48 48" fill="none" xmlns="http://www.w3.org/2000/svg">
<path d="M2.33594 9.01875H4.43594V32.895C4.43594 33.0939 4.51496 33.2847 4.65561 33.4253C4.79626 33.566 4.98703 33.645 5.18594 33.645H16.6639V38.9843C16.0406 39.5933 15.6129 40.3743 15.4354 41.2276C15.258 42.0808 15.3388 42.9676 15.6676 43.7747C15.9965 44.5818 16.5584 45.2725 17.2816 45.7588C18.0048 46.2451 18.8566 46.5048 19.7281 46.5048C20.5996 46.5048 21.4513 46.2451 22.1745 45.7588C22.8977 45.2725 23.4596 44.5818 23.7885 43.7747C24.1173 42.9676 24.1982 42.0808 24.0207 41.2276C23.8433 40.3743 23.4155 39.5933 22.7922 38.9843V33.645H28.3504C29.2107 34.0331 30.1214 34.2978 31.0557 34.431C31.3474 34.478 31.6124 34.6287 31.8021 34.8553C31.9918 35.0819 32.0935 35.3693 32.0884 35.6648V40.632C32.0884 40.8309 32.1675 41.0217 32.3081 41.1623C32.4488 41.303 32.6395 41.382 32.8384 41.382H45.6634C45.8624 41.382 46.0531 41.303 46.1938 41.1623C46.3344 41.0217 46.4134 40.8309 46.4134 40.632V33.0203C46.4118 31.598 45.8461 30.2344 44.8403 29.2288C43.8346 28.2232 42.471 27.6576 41.0487 27.6562H35.0187V26.2192C35.8398 26.9289 36.8476 27.3878 37.922 27.5412C38.9965 27.6947 40.0924 27.5362 41.0793 27.0847C42.0663 26.6332 42.9028 25.9077 43.4893 24.9944C44.0758 24.0812 44.3876 23.0187 44.3876 21.9334C44.3876 20.848 44.0758 19.7855 43.4893 18.8723C42.9028 17.9591 42.0663 17.2335 41.0793 16.782C40.0924 16.3305 38.9965 16.1721 37.922 16.3255C36.8476 16.4789 35.8398 16.9378 35.0187 17.6475V9.0225H37.1187C37.3176 9.0225 37.5084 8.94348 37.649 8.80283C37.7897 8.66218 37.8687 8.47141 37.8687 8.2725V2.25C37.8687 2.05109 37.7897 1.86032 37.649 1.71967C37.5084 1.57902 37.3176 1.5 37.1187 1.5H2.33594C2.13703 1.5 1.94626 1.57902 1.80561 1.71967C1.66496 1.86032 1.58594 2.05109 1.58594 2.25V8.26875C1.58594 8.46766 1.66496 8.65843 1.80561 8.79908C1.94626 8.93973 2.13703 9.01875 2.33594 9.01875ZM19.7254 45C19.1547 45.0001 18.5968 44.831 18.1222 44.5141C17.6476 44.1971 17.2777 43.7465 17.0592 43.2192C16.8407 42.692 16.7835 42.1118 16.8948 41.552C17.0061 40.9923 17.281 40.4781 17.6845 40.0746C18.0881 39.671 18.6022 39.3962 19.162 39.2849C19.7217 39.1736 20.3019 39.2308 20.8292 39.4493C21.3564 39.6677 21.807 40.0377 22.124 40.5123C22.441 40.9869 22.6101 41.5448 22.6099 42.1155C22.6089 42.8802 22.3047 43.6133 21.764 44.1541C21.2233 44.6948 20.4901 44.999 19.7254 45ZM21.2899 38.025C20.2838 37.634 19.1678 37.634 18.1617 38.025V33.645H21.2899V38.025ZM44.9149 33.0217V39.8835H33.5899V35.6648C33.5942 35.0067 33.3607 34.3692 32.9324 33.8696C32.5041 33.37 31.9099 33.0417 31.2589 32.9452C30.4054 32.8221 29.5751 32.5723 28.7952 32.2042C27.2176 31.4315 25.7942 30.3772 24.5952 29.0933C24.5779 29.0745 24.5614 29.0557 24.5427 29.0385C24.0229 28.4962 23.5819 27.9735 23.2332 27.5295C22.78 26.9473 22.5042 26.2469 22.4389 25.512L22.2289 23.319L22.3152 23.2238C23.007 23.223 23.6906 23.3731 24.3185 23.6637C24.9463 23.9542 25.5032 24.3782 25.9504 24.906L28.7307 28.182C28.989 28.4872 29.3106 28.7325 29.6733 28.9009C30.0359 29.0693 30.4309 29.1567 30.8307 29.157H41.0502C42.0746 29.158 43.0568 29.5653 43.7814 30.2895C44.5059 31.0138 44.9136 31.9958 44.9149 33.0203V33.0217ZM20.9449 25.656C21.037 26.676 21.4208 27.648 22.0504 28.4558C22.1464 28.5778 22.2489 28.705 22.3579 28.8375H9.25019V25.065H20.8879L20.9449 25.656ZM30.2052 27.48C30.0803 27.4099 29.9682 27.3191 29.8737 27.2115L28.0504 25.065H30.2037L30.2052 27.48ZM31.7052 27.6562V24.315C31.7052 24.1161 31.6262 23.9253 31.4855 23.7847C31.3449 23.644 31.1541 23.565 30.9552 23.565H26.7432C26.1631 22.9819 25.4736 22.5191 24.7143 22.203C23.9549 21.8869 23.1407 21.7238 22.3182 21.723C22.097 21.723 21.8783 21.7693 21.6761 21.8588C21.4738 21.9483 21.2926 22.0791 21.1438 22.2428C20.9951 22.4065 20.8822 22.5995 20.8125 22.8093C20.7427 23.0192 20.7176 23.2413 20.7387 23.4615L20.7484 23.565H8.50019C8.30128 23.565 8.11051 23.644 7.96986 23.7847C7.82921 23.9253 7.75019 24.1161 7.75019 24.315V29.5875C7.75019 29.7864 7.82921 29.9772 7.96986 30.1178C8.11051 30.2585 8.30128 30.3375 8.50019 30.3375H23.7192C24.3663 30.9917 25.062 31.5959 25.8004 32.145H22.0834C22.0692 32.145 22.0564 32.1367 22.0422 32.1367H17.4139C17.3989 32.1367 17.3869 32.1443 17.3719 32.145H5.93519V9.0225H33.5202V19.677C33.209 20.3886 33.0484 21.1568 33.0484 21.9334C33.0484 22.71 33.209 23.4782 33.5202 24.1897V27.6562H31.7052ZM38.7132 17.769C39.5369 17.769 40.3421 18.0133 41.027 18.4709C41.7119 18.9285 42.2457 19.579 42.5609 20.34C42.8761 21.101 42.9586 21.9384 42.7979 22.7463C42.6372 23.5541 42.2406 24.2962 41.6581 24.8787C41.0757 25.4611 40.3336 25.8578 39.5257 26.0185C38.7178 26.1792 37.8804 26.0967 37.1194 25.7815C36.3584 25.4663 35.708 24.9325 35.2503 24.2476C34.7927 23.5627 34.5484 22.7575 34.5484 21.9338C34.5494 20.8295 34.9885 19.7708 35.7694 18.9899C36.5502 18.2091 37.6089 17.77 38.7132 17.769ZM3.08594 3H36.3702V7.51875H3.08594V3Z" fill="#2A2B37"/>
<path d="M17.9612 10.887H8.81641C8.61749 10.887 8.42673 10.966 8.28608 11.1066C8.14542 11.2473 8.06641 11.4381 8.06641 11.637V20.58C8.06641 20.7789 8.14542 20.9696 8.28608 21.1103C8.42673 21.2509 8.61749 21.33 8.81641 21.33H17.9612C18.1601 21.33 18.3508 21.2509 18.4915 21.1103C18.6321 20.9696 18.7112 20.7789 18.7112 20.58V11.637C18.7112 11.4381 18.6321 11.2473 18.4915 11.1066C18.3508 10.966 18.1601 10.887 17.9612 10.887ZM17.2112 19.83H9.56641V12.387H17.2112V19.83Z" fill="#2A2B37"/>
<path d="M21.0586 13.7903H28.8001C28.999 13.7903 29.1898 13.7113 29.3304 13.5706C29.4711 13.43 29.5501 13.2392 29.5501 13.0403C29.5501 12.8414 29.4711 12.6506 29.3304 12.51C29.1898 12.3693 28.999 12.2903 28.8001 12.2903H21.0586C20.8597 12.2903 20.6689 12.3693 20.5283 12.51C20.3876 12.6506 20.3086 12.8414 20.3086 13.0403C20.3086 13.2392 20.3876 13.43 20.5283 13.5706C20.6689 13.7113 20.8597 13.7903 21.0586 13.7903Z" fill="#2A2B37"/>
<path d="M21.0586 17.2261H23.3618C23.5608 17.2261 23.7515 17.1471 23.8922 17.0064C24.0328 16.8658 24.1118 16.675 24.1118 16.4761C24.1118 16.2772 24.0328 16.0864 23.8922 15.9457C23.7515 15.8051 23.5608 15.7261 23.3618 15.7261H21.0586C20.8597 15.7261 20.6689 15.8051 20.5283 15.9457C20.3876 16.0864 20.3086 16.2772 20.3086 16.4761C20.3086 16.675 20.3876 16.8658 20.5283 17.0064C20.6689 17.1471 20.8597 17.2261 21.0586 17.2261Z" fill="#2A2B37"/>
<path d="M30.445 15.7261H26.2832C26.0843 15.7261 25.8935 15.8051 25.7529 15.9457C25.6122 16.0864 25.5332 16.2772 25.5332 16.4761C25.5332 16.675 25.6122 16.8658 25.7529 17.0064C25.8935 17.1471 26.0843 17.2261 26.2832 17.2261H30.445C30.6439 17.2261 30.8346 17.1471 30.9753 17.0064C31.1159 16.8658 31.195 16.675 31.195 16.4761C31.195 16.2772 31.1159 16.0864 30.9753 15.9457C30.8346 15.8051 30.6439 15.7261 30.445 15.7261Z" fill="#2A2B37"/>
<path d="M29.0423 18.9194H21.0586C20.8597 18.9194 20.6689 18.9985 20.5283 19.1391C20.3876 19.2798 20.3086 19.4705 20.3086 19.6694C20.3086 19.8683 20.3876 20.0591 20.5283 20.1998C20.6689 20.3404 20.8597 20.4194 21.0586 20.4194H29.0423C29.2413 20.4194 29.432 20.3404 29.5727 20.1998C29.7133 20.0591 29.7923 19.8683 29.7923 19.6694C29.7923 19.4705 29.7133 19.2798 29.5727 19.1391C29.432 18.9985 29.2413 18.9194 29.0423 18.9194Z" fill="#2A2B37"/>
</svg>
