<svg width="48" height="48" viewBox="0 0 48 48" fill="none" xmlns="http://www.w3.org/2000/svg">
<path d="M35.7156 28.1954V27.7867C35.7163 27.2747 35.5669 26.7738 35.2859 26.3459C35.6134 26.1731 35.9008 25.933 36.1293 25.6415C36.3577 25.35 36.5221 25.0136 36.6117 24.6542C36.7012 24.2948 36.7139 23.9206 36.6489 23.5559C36.584 23.1913 36.4428 22.8445 36.2346 22.5382C36.6392 22.3083 36.9757 21.9756 37.2101 21.5737C37.4446 21.1719 37.5686 20.7152 37.5696 20.2499V19.7474C37.5696 19.3205 37.4657 18.9 37.267 18.5221C37.0682 18.1443 36.7806 17.8204 36.4289 17.5784C36.7834 17.119 36.9756 16.5551 36.9756 15.9749V15.8182C36.975 15.1194 36.6972 14.4494 36.2031 13.9552C35.7089 13.4611 35.0389 13.1833 34.3401 13.1827H26.6676C27.1625 11.1069 27.4519 8.98739 27.5316 6.85491C27.5536 6.40694 27.4843 5.95917 27.3281 5.53873C27.1719 5.11829 26.932 4.73393 26.623 4.40893C26.3139 4.08392 25.942 3.82503 25.53 3.64794C25.1179 3.47085 24.6742 3.37924 24.2256 3.37866H24.0074C23.764 3.37921 23.523 3.42809 23.2986 3.52246C23.0742 3.61683 22.8708 3.75481 22.7001 3.92841C22.5317 4.09903 22.3995 4.30189 22.3113 4.52484C22.2232 4.7478 22.1809 4.98625 22.1871 5.22591C22.3071 10.5374 19.2261 12.9217 17.5904 13.8104V13.1452C17.5904 12.9462 17.5114 12.7555 17.3707 12.6148C17.2301 12.4742 17.0393 12.3952 16.8404 12.3952H11.1816C10.9827 12.3952 10.792 12.4742 10.6513 12.6148C10.5107 12.7555 10.4316 12.9462 10.4316 13.1452V29.9249C10.4316 30.1238 10.5107 30.3146 10.6513 30.4552C10.792 30.5959 10.9827 30.6749 11.1816 30.6749H16.8374C17.0363 30.6749 17.2271 30.5959 17.3677 30.4552C17.5084 30.3146 17.5874 30.1238 17.5874 29.9249V29.7899L18.4971 30.2744C19.1825 30.6389 19.9469 30.8297 20.7231 30.8302H33.0801C33.7788 30.8296 34.4487 30.5518 34.9428 30.0578C35.4369 29.5639 35.7148 28.8941 35.7156 28.1954ZM16.0874 29.1749H11.9316V13.8952H13.2599V20.1067C13.2599 20.3056 13.3389 20.4963 13.4796 20.637C13.6202 20.7776 13.811 20.8567 14.0099 20.8567C14.2088 20.8567 14.3996 20.7776 14.5402 20.637C14.6809 20.4963 14.7599 20.3056 14.7599 20.1067V13.8952H16.0874V29.1749ZM31.1324 26.6534H33.0824C33.3835 26.6536 33.6722 26.7733 33.8851 26.9862C34.098 27.1991 34.2177 27.4878 34.2179 27.7889V28.1977C34.2175 28.4986 34.0977 28.7871 33.8848 28.9999C33.6719 29.2126 33.3834 29.3322 33.0824 29.3324H20.7231C20.192 29.331 19.6693 29.1997 19.2006 28.9499L17.5866 28.0897V15.4679C19.1616 14.7554 23.8386 12.0599 23.6826 5.19291C23.6817 5.15318 23.6889 5.11368 23.7037 5.0768C23.7186 5.03993 23.7407 5.00646 23.7689 4.97841C23.7994 4.94708 23.8359 4.92217 23.8763 4.90517C23.9166 4.88817 23.9599 4.87941 24.0036 4.87941H24.2256C24.4713 4.87951 24.7145 4.92955 24.9402 5.02649C25.166 5.12344 25.3697 5.26527 25.5389 5.44337C25.7082 5.62147 25.8395 5.83212 25.9248 6.06252C26.0102 6.29293 26.0478 6.53827 26.0354 6.78366C25.9663 9.12394 25.604 11.4463 24.9569 13.6964C24.9196 13.8091 24.9096 13.929 24.9277 14.0462C24.9458 14.1635 24.9915 14.2748 25.0609 14.371C25.1304 14.4672 25.2217 14.5456 25.3274 14.5996C25.433 14.6537 25.55 14.6819 25.6686 14.6819H34.3371C34.4864 14.6816 34.6343 14.7107 34.7723 14.7676C34.9103 14.8245 35.0358 14.908 35.1415 15.0134C35.2472 15.1188 35.3312 15.2439 35.3885 15.3818C35.4458 15.5196 35.4754 15.6674 35.4756 15.8167V15.9749C35.4754 16.276 35.3557 16.5647 35.1428 16.7776C34.9299 16.9905 34.6412 17.1102 34.3401 17.1104H28.6191C28.4202 17.1104 28.2295 17.1894 28.0888 17.3301C27.9482 17.4707 27.8691 17.6615 27.8691 17.8604C27.8691 18.0593 27.9482 18.2501 28.0888 18.3907C28.2295 18.5314 28.4202 18.6104 28.6191 18.6104H34.9341C35.2351 18.6106 35.5237 18.7302 35.7366 18.9429C35.9495 19.1557 36.0692 19.4442 36.0696 19.7452V20.2499C36.0694 20.551 35.9497 20.8397 35.7368 21.0526C35.5239 21.2655 35.2352 21.3852 34.9341 21.3854H29.5934C29.3945 21.3854 29.2037 21.4644 29.0631 21.6051C28.9224 21.7457 28.8434 21.9365 28.8434 22.1354C28.8434 22.3343 28.9224 22.5251 29.0631 22.6657C29.2037 22.8064 29.3945 22.8854 29.5934 22.8854H34.0544C34.3553 22.8854 34.644 23.005 34.8568 23.2178C35.0696 23.4306 35.1891 23.7192 35.1891 24.0202C35.1891 24.3211 35.0696 24.6097 34.8568 24.8225C34.644 25.0354 34.3553 25.1549 34.0544 25.1549H31.1294C30.9305 25.1549 30.7397 25.2339 30.5991 25.3746C30.4584 25.5152 30.3794 25.706 30.3794 25.9049C30.3794 26.1038 30.4584 26.2946 30.5991 26.4352C30.7397 26.5759 30.9305 26.6549 31.1294 26.6549L31.1324 26.6534Z" fill="#2A2B37"/>
<path d="M28.2286 36.1124L26.7406 35.8964C26.6697 35.8862 26.6023 35.8588 26.5443 35.8167C26.4863 35.7747 26.4394 35.7192 26.4076 35.6549L25.7431 34.3049C25.5825 33.9802 25.3342 33.7068 25.0264 33.5156C24.7186 33.3244 24.3635 33.2231 24.0012 33.2231C23.6389 33.2231 23.2838 33.3244 22.976 33.5156C22.6682 33.7068 22.4199 33.9802 22.2593 34.3049L21.5948 35.6549C21.563 35.7192 21.5161 35.7747 21.4581 35.8167C21.4001 35.8588 21.3327 35.8862 21.2618 35.8964L19.7731 36.1124C19.4146 36.1648 19.0779 36.3164 18.801 36.55C18.5241 36.7837 18.3181 37.0901 18.2063 37.4347C18.0944 37.7793 18.0811 38.1483 18.1679 38.5001C18.2548 38.8518 18.4382 39.1722 18.6976 39.4252L19.7738 40.4752C19.8253 40.525 19.8638 40.5867 19.886 40.6548C19.9082 40.7229 19.9135 40.7954 19.9013 40.8659L19.6471 42.3472C19.5859 42.7044 19.6258 43.0717 19.7624 43.4074C19.899 43.7431 20.1268 44.0339 20.42 44.2469C20.7132 44.4599 21.0602 44.5867 21.4217 44.6128C21.7832 44.6389 22.1448 44.5634 22.4656 44.3947L23.7953 43.6957C23.8587 43.6621 23.9294 43.6445 24.0012 43.6445C24.073 43.6445 24.1437 43.6621 24.2071 43.6957L25.5383 44.3962C25.8592 44.5647 26.2208 44.6401 26.5822 44.6139C26.9437 44.5876 27.2906 44.4608 27.5837 44.2477C27.8769 44.0346 28.1045 43.7438 28.241 43.4081C28.3775 43.0723 28.4174 42.7051 28.3561 42.3479L28.1018 40.8667C28.0898 40.796 28.0951 40.7234 28.1173 40.6552C28.1395 40.587 28.1779 40.5252 28.2293 40.4752L29.3056 39.4252C29.5652 39.1723 29.7489 38.8518 29.8359 38.4999C29.9228 38.1481 29.9096 37.7789 29.7976 37.4342C29.6856 37.0894 29.4793 36.7829 29.2022 36.5494C28.925 36.3158 28.5873 36.1644 28.2286 36.1124ZM28.2578 38.3519L27.1816 39.4019C26.956 39.6218 26.7872 39.8932 26.6899 40.1928C26.5926 40.4924 26.5695 40.8112 26.6228 41.1217L26.8763 42.6029C26.8904 42.6843 26.8814 42.7679 26.8503 42.8444C26.8193 42.9209 26.7676 42.9872 26.7009 43.0358C26.6342 43.0844 26.5552 43.1134 26.4729 43.1194C26.3906 43.1255 26.3082 43.1085 26.2351 43.0702L24.9046 42.3689C24.6257 42.2224 24.3155 42.1458 24.0005 42.1458C23.6854 42.1458 23.3752 42.2224 23.0963 42.3689L21.7666 43.0687C21.6935 43.1071 21.6111 43.1243 21.5288 43.1184C21.4464 43.1124 21.3674 43.0835 21.3006 43.035C21.2338 42.9864 21.1819 42.9202 21.1508 42.8437C21.1197 42.7672 21.1106 42.6836 21.1246 42.6022L21.3788 41.1209C21.4322 40.8106 21.4092 40.4919 21.3119 40.1924C21.2145 39.8929 21.0457 39.6216 20.8201 39.4019L19.7438 38.3519C19.6849 38.2943 19.6432 38.2213 19.6234 38.1412C19.6037 38.0611 19.6067 37.9771 19.6321 37.8986C19.6575 37.8201 19.7043 37.7502 19.7672 37.6969C19.8302 37.6436 19.9067 37.6089 19.9883 37.5967L21.4763 37.3807C21.788 37.3356 22.084 37.2154 22.3388 37.0304C22.5936 36.8454 22.7995 36.6011 22.9388 36.3187L23.6041 34.9687C23.6408 34.8949 23.6974 34.8328 23.7675 34.7895C23.8376 34.7461 23.9184 34.7231 24.0008 34.7231C24.0833 34.7231 24.1641 34.7461 24.2341 34.7895C24.3042 34.8328 24.3608 34.8949 24.3976 34.9687L25.0628 36.3187C25.2021 36.6011 25.4081 36.8454 25.6629 37.0304C25.9177 37.2154 26.2137 37.3356 26.5253 37.3807L28.0126 37.5967C28.0942 37.6088 28.1709 37.6434 28.2339 37.6967C28.297 37.75 28.3439 37.8198 28.3694 37.8983C28.3948 37.9768 28.3979 38.0609 28.3782 38.141C28.3585 38.2212 28.3168 38.2942 28.2578 38.3519Z" fill="#2A2B37"/>
<path d="M11.62 36.1126L10.132 35.8966C10.061 35.8863 9.99369 35.859 9.93569 35.8169C9.87768 35.7748 9.83076 35.7193 9.79895 35.6551L9.1337 34.3051C8.97412 33.9797 8.72614 33.7059 8.41815 33.5149C8.11016 33.3239 7.75461 33.2234 7.3922 33.2251C7.02949 33.2238 6.67372 33.3246 6.36561 33.516C6.0575 33.7074 5.80949 33.9816 5.64995 34.3074L4.98545 35.6574C4.95369 35.7217 4.90679 35.7773 4.84879 35.8195C4.79079 35.8617 4.72342 35.8892 4.65245 35.8996L3.1637 36.1156C2.80521 36.168 2.46851 36.3196 2.19164 36.5532C1.91476 36.7869 1.70875 37.0933 1.59688 37.4379C1.48501 37.7825 1.47173 38.1515 1.55856 38.5032C1.64538 38.855 1.82884 39.1754 2.0882 39.4284L3.16445 40.4784C3.21571 40.5285 3.25403 40.5903 3.27611 40.6585C3.29819 40.7267 3.30337 40.7992 3.2912 40.8699L3.0377 42.3481C2.97648 42.7053 3.01642 43.0726 3.15301 43.4083C3.2896 43.744 3.51738 44.0348 3.81061 44.2478C4.10384 44.4608 4.45082 44.5876 4.81231 44.6137C5.17381 44.6398 5.5354 44.5643 5.8562 44.3956L7.18595 43.6966C7.24937 43.663 7.32005 43.6454 7.39183 43.6454C7.46361 43.6454 7.53429 43.663 7.5977 43.6966L8.92895 44.3971C9.2498 44.5656 9.61138 44.641 9.97284 44.6148C10.3343 44.5885 10.6812 44.4617 10.9743 44.2486C11.2675 44.0355 11.4952 43.7447 11.6317 43.409C11.7681 43.0733 11.808 42.7061 11.7467 42.3489L11.4925 40.8676C11.4804 40.7969 11.4857 40.7243 11.5079 40.6561C11.5301 40.5879 11.5686 40.5262 11.62 40.4761L12.6962 39.4261C12.9556 39.1731 13.139 38.8526 13.2258 38.5008C13.3126 38.149 13.2993 37.78 13.1873 37.4354C13.0753 37.0908 12.8692 36.7843 12.5923 36.5507C12.3153 36.3171 11.9785 36.1649 11.62 36.1126ZM11.6492 38.3521L10.5722 39.4021C10.3469 39.622 10.1783 39.8933 10.0811 40.1928C9.98391 40.4922 9.96095 40.8108 10.0142 41.1211L10.2677 42.6001C10.2817 42.6814 10.2727 42.7651 10.2417 42.8416C10.2107 42.9181 10.1589 42.9843 10.0922 43.0329C10.0255 43.0816 9.94656 43.1105 9.86425 43.1166C9.78195 43.1227 9.69958 43.1056 9.62645 43.0674L8.29595 42.3661C8.01712 42.2196 7.70684 42.143 7.39183 42.143C7.07682 42.143 6.76654 42.2196 6.4877 42.3661L5.15795 43.0659C5.08487 43.1043 5.0025 43.1215 4.92015 43.1155C4.8378 43.1096 4.75876 43.0807 4.69197 43.0321C4.62518 42.9836 4.57329 42.9174 4.54219 42.8409C4.51108 42.7644 4.502 42.6807 4.51595 42.5994L4.76945 41.1189C4.82304 40.8085 4.80023 40.4897 4.70301 40.19C4.60579 39.8904 4.43708 39.6189 4.21145 39.3991L3.1352 38.3491C3.07595 38.2916 3.034 38.2185 3.01409 38.1384C2.99418 38.0582 2.99712 37.974 3.02256 37.8954C3.048 37.8169 3.09494 37.747 3.15806 37.6937C3.22118 37.6404 3.29796 37.6058 3.3797 37.5939L4.8677 37.3779C5.17927 37.3326 5.47517 37.2122 5.72994 37.0272C5.9847 36.8423 6.1907 36.5981 6.3302 36.3159L6.99545 34.9659C7.03208 34.8921 7.0886 34.8299 7.15863 34.7865C7.22866 34.7431 7.30943 34.7201 7.39183 34.7201C7.47423 34.7201 7.555 34.7431 7.62503 34.7865C7.69506 34.8299 7.75157 34.8921 7.7882 34.9659L8.4542 36.3159C8.5935 36.5983 8.79944 36.8425 9.05424 37.0276C9.30904 37.2126 9.60505 37.3328 9.9167 37.3779L11.404 37.5939C11.4856 37.6059 11.5623 37.6406 11.6253 37.6938C11.6883 37.7471 11.7352 37.817 11.7607 37.8955C11.7862 37.974 11.7893 38.058 11.7696 38.1382C11.7499 38.2183 11.7082 38.2914 11.6492 38.3491V38.3521Z" fill="#2A2B37"/>
<path d="M44.8348 36.1124L43.349 35.8964C43.2782 35.8861 43.211 35.8587 43.1531 35.8166C43.0953 35.7745 43.0485 35.719 43.0168 35.6549L42.3515 34.3049C42.1917 33.979 41.9433 33.7049 41.6347 33.5138C41.3261 33.3228 40.97 33.2227 40.607 33.2249C40.2444 33.2234 39.8887 33.3242 39.5807 33.5156C39.2727 33.707 39.0248 33.9813 38.8655 34.3071L38.2003 35.6571C38.1685 35.7213 38.1216 35.7769 38.0636 35.8189C38.0056 35.861 37.9382 35.8884 37.8673 35.8986L36.3785 36.1146C36.0201 36.167 35.6834 36.3186 35.4065 36.5522C35.1296 36.7859 34.9236 37.0923 34.8117 37.4369C34.6999 37.7815 34.6866 38.1505 34.7734 38.5023C34.8602 38.854 35.0437 39.1744 35.303 39.4274L36.3793 40.4774C36.4307 40.5274 36.4691 40.5892 36.4914 40.6574C36.5136 40.7256 36.5189 40.7982 36.5068 40.8689L36.2525 42.3501C36.1913 42.7074 36.2313 43.0746 36.3679 43.4103C36.5044 43.746 36.7322 44.0368 37.0255 44.2499C37.3187 44.4629 37.6657 44.5896 38.0272 44.6157C38.3887 44.6418 38.7502 44.5663 39.071 44.3976L40.4008 43.6986C40.4643 43.6652 40.5349 43.6477 40.6067 43.6477C40.6784 43.6477 40.7491 43.6652 40.8125 43.6986L42.1438 44.3991C42.4647 44.5673 42.8262 44.6425 43.1875 44.6161C43.5488 44.5898 43.8956 44.4629 44.1886 44.2499C44.4817 44.0369 44.7093 43.7462 44.8459 43.4106C44.9825 43.0751 45.0225 42.708 44.9615 42.3509L44.7073 40.8689C44.6955 40.7983 44.7009 40.7259 44.7231 40.6579C44.7453 40.5898 44.7836 40.5282 44.8348 40.4781L45.911 39.4281C46.1707 39.1753 46.3544 38.8547 46.4414 38.5029C46.5283 38.151 46.515 37.7818 46.403 37.4371C46.2911 37.0924 46.0848 36.7859 45.8077 36.5523C45.5305 36.3187 45.1935 36.1674 44.8348 36.1154V36.1124ZM44.864 38.3519L43.7878 39.4019C43.5623 39.6217 43.3936 39.893 43.2963 40.1924C43.199 40.4919 43.1759 40.8105 43.229 41.1209L43.4833 42.6021C43.4973 42.6835 43.4883 42.7671 43.4573 42.8436C43.4263 42.9201 43.3745 42.9864 43.3078 43.035C43.2411 43.0836 43.1622 43.1126 43.0798 43.1186C42.9975 43.1247 42.9152 43.1077 42.842 43.0694L41.5108 42.3681C41.232 42.2216 40.9217 42.145 40.6067 42.145C40.2917 42.145 39.9814 42.2216 39.7025 42.3681L38.3735 43.0679C38.3004 43.1062 38.218 43.1233 38.1357 43.1173C38.0533 43.1114 37.9743 43.0825 37.9075 43.034C37.8407 42.9855 37.7887 42.9193 37.7575 42.8429C37.7263 42.7664 37.717 42.6828 37.7308 42.6014L37.985 41.1201C38.0383 40.8098 38.0153 40.4912 37.9181 40.1918C37.8209 39.8923 37.6524 39.621 37.427 39.4011L36.35 38.3511C36.2911 38.2935 36.2494 38.2205 36.2296 38.1404C36.2099 38.0603 36.2129 37.9762 36.2383 37.8978C36.2637 37.8193 36.3105 37.7494 36.3734 37.6961C36.4364 37.6428 36.513 37.6081 36.5945 37.5959L38.0825 37.3799C38.3943 37.3347 38.6903 37.2144 38.9452 37.0294C39.2001 36.8444 39.4062 36.6002 39.5458 36.3179L40.211 34.9679C40.2477 34.8941 40.3042 34.832 40.3742 34.7885C40.4443 34.7451 40.525 34.7221 40.6074 34.7221C40.6898 34.7221 40.7706 34.7451 40.8406 34.7885C40.9107 34.832 40.9672 34.8941 41.0038 34.9679L41.669 36.3179C41.8087 36.6 42.0148 36.8439 42.2695 37.0288C42.5242 37.2136 42.8201 37.3339 43.1315 37.3791L44.6188 37.5951C44.7006 37.6069 44.7775 37.6414 44.8407 37.6947C44.9039 37.7479 44.9509 37.8178 44.9765 37.8964C45.002 37.9751 45.005 38.0592 44.9851 38.1395C44.9653 38.2197 44.9233 38.2928 44.864 38.3504V38.3519Z" fill="#2A2B37"/>
</svg>
