<svg width="48" height="48" viewBox="0 0 48 48" fill="none" xmlns="http://www.w3.org/2000/svg">
<path d="M7.39589 46.4999H40.6029C40.8018 46.4999 40.9926 46.4209 41.1332 46.2803C41.2739 46.1396 41.3529 45.9488 41.3529 45.7499V39.8549C41.3493 36.6673 40.0814 33.6112 37.8274 31.3572C35.5734 29.1031 32.5173 27.8353 29.3296 27.8317H28.2871C29.4341 27.1084 30.3794 26.1067 31.0351 24.9198C31.6908 23.7329 32.0355 22.3994 32.0371 21.0434V8.67818L36.1066 7.21568C36.2519 7.16343 36.3776 7.0676 36.4664 6.94129C36.5552 6.81498 36.6028 6.66434 36.6028 6.50993C36.6028 6.35552 36.5552 6.20488 36.4664 6.07857C36.3776 5.95226 36.2519 5.85643 36.1066 5.80418L24.2506 1.54418C24.0868 1.48495 23.9075 1.48495 23.7436 1.54418L11.8936 5.80418C11.7483 5.85643 11.6227 5.95226 11.5339 6.07857C11.4451 6.20488 11.3974 6.35552 11.3974 6.50993C11.3974 6.66434 11.4451 6.81498 11.5339 6.94129C11.6227 7.0676 11.7483 7.16343 11.8936 7.21568L15.9556 8.67593V21.0434C15.9573 22.3994 16.302 23.7329 16.9577 24.9198C17.6134 26.1067 18.5587 27.1084 19.7056 27.8317H18.6556C17.1333 27.833 15.6254 28.126 14.2134 28.6949C14.1954 28.7017 14.1781 28.7062 14.1609 28.7144C12.7764 29.2786 11.5092 30.0961 10.4244 31.1249C10.3983 31.14 10.3733 31.1568 10.3494 31.1752C10.3389 31.1864 10.3351 31.2007 10.3254 31.2127C9.16283 32.3318 8.23812 33.6741 7.60664 35.1591C6.97517 36.6441 6.64992 38.2412 6.65039 39.8549V45.7499C6.65039 45.9481 6.72879 46.1382 6.86847 46.2787C7.00815 46.4192 7.19776 46.4987 7.39589 46.4999ZM14.3109 30.2827L29.6146 44.9999H25.8166L11.9994 31.7189C12.7044 31.1421 13.4814 30.6593 14.3109 30.2827ZM21.3136 28.6162C23.0433 29.2402 24.9367 29.2402 26.6664 28.6162V33.4784C26.6723 33.8337 26.6075 34.1865 26.4757 34.5165C26.3438 34.8464 26.1477 35.1468 25.8985 35.4001C25.6494 35.6534 25.3524 35.8546 25.0247 35.9919C24.697 36.1293 24.3453 36.2 23.99 36.2C23.6347 36.2 23.283 36.1293 22.9553 35.9919C22.6277 35.8546 22.3306 35.6534 22.0815 35.4001C21.8324 35.1468 21.6362 34.8464 21.5044 34.5165C21.3725 34.1865 21.3077 33.8337 21.3136 33.4784V28.6162ZM39.8529 39.8549V44.9999H31.7791L24.1546 37.6679C25.2343 37.6225 26.2546 37.1614 27.0022 36.3812C27.7498 35.601 28.167 34.562 28.1664 33.4814V29.3317H29.3296C32.1196 29.3349 34.7944 30.4446 36.7672 32.4174C38.74 34.3902 39.8497 37.065 39.8529 39.8549ZM23.9994 3.04643L33.6339 6.50993L23.9994 9.97493L17.0154 7.46393C16.9938 7.45495 16.9718 7.44719 16.9494 7.44068L14.3604 6.50993L23.9994 3.04643ZM23.7436 11.4749C23.9075 11.5338 24.0868 11.5338 24.2506 11.4749L30.5356 9.21668V15.4859H17.4519V9.21443L23.7436 11.4749ZM17.4519 21.0434V16.9867H30.5356V21.0434C30.5341 22.2156 30.2178 23.3658 29.6199 24.374C29.022 25.3822 28.1644 26.2114 27.1366 26.7749C27.1186 26.7824 27.1044 26.7937 27.0879 26.8019C26.131 27.3179 25.0603 27.5865 23.9732 27.5835C22.8861 27.5805 21.8169 27.3059 20.8629 26.7847L20.8501 26.7772C19.8221 26.2134 18.9644 25.3838 18.3666 24.3752C17.7688 23.3666 17.4529 22.2159 17.4519 21.0434ZM19.8136 29.3317V33.4942L15.8829 29.7142C16.7836 29.4632 17.7139 29.3346 18.6489 29.3317H19.8136ZM8.14589 39.8549C8.1468 37.2264 9.13507 34.6942 10.9149 32.7599L23.6506 44.9999H8.14589V39.8549Z" fill="#2A2B37"/>
</svg>
