<svg width="183" height="61" viewBox="0 0 183 61" fill="none" xmlns="http://www.w3.org/2000/svg">
<rect x="0.1875" width="182.812" height="60.9375" rx="8" fill="white"/>
<path d="M39.5862 31.6903C39.6282 28.4646 41.3772 25.4124 44.1518 23.7229C42.4014 21.2469 39.4696 19.677 36.4194 19.5825C33.166 19.2443 30.012 21.5107 28.3542 21.5107C26.6642 21.5107 24.1117 19.6161 21.3631 19.6721C17.7803 19.7868 14.4403 21.8043 12.6973 24.9066C8.95034 31.3319 11.7452 40.7749 15.3344 45.9686C17.1302 48.5118 19.229 51.3526 21.9751 51.2519C24.6624 51.1415 25.6661 49.5546 28.9098 49.5546C32.1235 49.5546 33.0651 51.2519 35.867 51.1878C38.7506 51.1414 40.5674 48.6333 42.3002 46.066C43.5904 44.2539 44.5833 42.2511 45.2419 40.1318C41.8532 38.7122 39.5902 35.3345 39.5862 31.6903Z" fill="#141A1F"/>
<path d="M34.2939 16.1669C35.8662 14.2975 36.6407 11.8947 36.4532 9.46875C34.0511 9.71863 31.8323 10.8557 30.2388 12.6534C28.6806 14.4098 27.8697 16.7703 28.023 19.1035C30.4259 19.128 32.7882 18.0218 34.2939 16.1669Z" fill="#141A1F"/>
<path d="M57.4755 23.4688V13.5287H60.5555C62.0862 13.5287 63.2622 13.9627 64.0835 14.8307C64.9142 15.6894 65.3295 16.9167 65.3295 18.5127C65.3295 20.0994 64.9235 21.3221 64.1115 22.1807C63.2995 23.0394 62.1422 23.4688 60.6395 23.4688H57.4755ZM58.6795 22.2927H60.5555C61.7222 22.2927 62.5995 21.9801 63.1875 21.3547C63.7755 20.7201 64.0695 19.7727 64.0695 18.5127C64.0695 17.2341 63.7755 16.2821 63.1875 15.6567C62.5995 15.0221 61.7222 14.7047 60.5555 14.7047H58.6795V22.2927ZM70.1723 23.6368C69.491 23.6368 68.8936 23.4781 68.3803 23.1607C67.867 22.8434 67.4703 22.3954 67.1903 21.8167C66.9103 21.2287 66.7703 20.5427 66.7703 19.7587C66.7703 18.9654 66.9103 18.2794 67.1903 17.7007C67.4703 17.1221 67.867 16.6741 68.3803 16.3567C68.8936 16.0394 69.491 15.8807 70.1723 15.8807C70.8536 15.8807 71.4463 16.0394 71.9503 16.3567C72.4636 16.6741 72.8603 17.1221 73.1403 17.7007C73.4203 18.2794 73.5603 18.9654 73.5603 19.7587C73.5603 20.5427 73.4203 21.2287 73.1403 21.8167C72.8603 22.3954 72.4636 22.8434 71.9503 23.1607C71.4463 23.4781 70.8536 23.6368 70.1723 23.6368ZM70.1723 22.5167C70.8536 22.5167 71.381 22.2741 71.7543 21.7887C72.137 21.2941 72.3283 20.6174 72.3283 19.7587C72.3283 18.9001 72.137 18.2281 71.7543 17.7427C71.381 17.2481 70.8536 17.0007 70.1723 17.0007C69.491 17.0007 68.959 17.2481 68.5763 17.7427C68.1936 18.2281 68.0023 18.9001 68.0023 19.7587C68.0023 20.6174 68.1936 21.2941 68.5763 21.7887C68.959 22.2741 69.491 22.5167 70.1723 22.5167ZM76.4282 23.4688L74.1322 16.0487H75.4202L77.1562 22.2367L78.9202 16.0487H80.1802L81.9442 22.2367L83.6942 16.0487H84.9822L82.6862 23.4688H81.2022L79.5502 17.8267L77.8982 23.4688H76.4282ZM86.0731 23.4688V16.0487H87.1511L87.1931 17.9387L87.0531 17.8127C87.1465 17.3741 87.3098 17.0147 87.5431 16.7347C87.7765 16.4454 88.0565 16.2307 88.3831 16.0907C88.7191 15.9507 89.0785 15.8807 89.4611 15.8807C90.0305 15.8807 90.4971 16.0067 90.8611 16.2587C91.2345 16.5107 91.5098 16.8514 91.6871 17.2807C91.8738 17.7007 91.9671 18.1721 91.9671 18.6947V23.4688H90.7911V19.0307C90.7911 18.5734 90.7351 18.1907 90.6231 17.8827C90.5205 17.5654 90.3525 17.3274 90.1191 17.1687C89.8858 17.0007 89.5825 16.9167 89.2091 16.9167C88.6398 16.9167 88.1685 17.0987 87.7951 17.4627C87.4311 17.8174 87.2491 18.3401 87.2491 19.0307V23.4688H86.0731ZM95.4588 23.4688C95.0295 23.4688 94.6795 23.3567 94.4088 23.1327C94.1381 22.9087 94.0028 22.5541 94.0028 22.0687V13.5287H95.1788V21.9707C95.1788 22.1201 95.2161 22.2367 95.2908 22.3207C95.3748 22.3954 95.4915 22.4327 95.6408 22.4327H96.2848V23.4688H95.4588ZM100.551 23.6368C99.8699 23.6368 99.2725 23.4781 98.7592 23.1607C98.2459 22.8434 97.8492 22.3954 97.5692 21.8167C97.2892 21.2287 97.1492 20.5427 97.1492 19.7587C97.1492 18.9654 97.2892 18.2794 97.5692 17.7007C97.8492 17.1221 98.2459 16.6741 98.7592 16.3567C99.2725 16.0394 99.8699 15.8807 100.551 15.8807C101.233 15.8807 101.825 16.0394 102.329 16.3567C102.843 16.6741 103.239 17.1221 103.519 17.7007C103.799 18.2794 103.939 18.9654 103.939 19.7587C103.939 20.5427 103.799 21.2287 103.519 21.8167C103.239 22.3954 102.843 22.8434 102.329 23.1607C101.825 23.4781 101.233 23.6368 100.551 23.6368ZM100.551 22.5167C101.233 22.5167 101.76 22.2741 102.133 21.7887C102.516 21.2941 102.707 20.6174 102.707 19.7587C102.707 18.9001 102.516 18.2281 102.133 17.7427C101.76 17.2481 101.233 17.0007 100.551 17.0007C99.8699 17.0007 99.3379 17.2481 98.9552 17.7427C98.5725 18.2281 98.3812 18.9001 98.3812 19.7587C98.3812 20.6174 98.5725 21.2941 98.9552 21.7887C99.3379 22.2741 99.8699 22.5167 100.551 22.5167ZM107.735 23.6368C106.97 23.6368 106.359 23.4594 105.901 23.1047C105.453 22.7501 105.229 22.2554 105.229 21.6208C105.229 20.9861 105.416 20.4867 105.789 20.1227C106.163 19.7587 106.755 19.5021 107.567 19.3528L110.199 18.8627C110.199 18.2374 110.05 17.7707 109.751 17.4627C109.462 17.1547 109.023 17.0007 108.435 17.0007C107.922 17.0007 107.516 17.1174 107.217 17.3507C106.919 17.5747 106.713 17.9014 106.601 18.3307L105.355 18.2327C105.495 17.5327 105.831 16.9681 106.363 16.5387C106.905 16.1001 107.595 15.8807 108.435 15.8807C109.387 15.8807 110.115 16.1514 110.619 16.6927C111.123 17.2247 111.375 17.9621 111.375 18.9047V21.9707C111.375 22.1387 111.403 22.2601 111.459 22.3347C111.525 22.4001 111.627 22.4327 111.767 22.4327H112.061V23.4688C112.024 23.4781 111.963 23.4828 111.879 23.4828C111.795 23.4921 111.707 23.4968 111.613 23.4968C111.277 23.4968 111.002 23.4454 110.787 23.3427C110.582 23.2307 110.433 23.0627 110.339 22.8387C110.246 22.6054 110.199 22.3021 110.199 21.9287L110.339 21.9567C110.274 22.2741 110.115 22.5634 109.863 22.8247C109.611 23.0767 109.299 23.2774 108.925 23.4267C108.552 23.5668 108.155 23.6368 107.735 23.6368ZM107.847 22.6007C108.342 22.6007 108.762 22.5074 109.107 22.3207C109.462 22.1247 109.733 21.8634 109.919 21.5367C110.106 21.2007 110.199 20.8274 110.199 20.4167V19.8847L107.791 20.3327C107.287 20.4261 106.937 20.5707 106.741 20.7667C106.555 20.9534 106.461 21.2007 106.461 21.5087C106.461 21.8541 106.583 22.1247 106.825 22.3207C107.077 22.5074 107.418 22.6007 107.847 22.6007ZM115.994 23.6368C115.35 23.6368 114.79 23.4781 114.314 23.1607C113.848 22.8434 113.488 22.3954 113.236 21.8167C112.984 21.2381 112.858 20.5521 112.858 19.7587C112.858 18.9654 112.984 18.2794 113.236 17.7007C113.488 17.1221 113.848 16.6741 114.314 16.3567C114.79 16.0394 115.35 15.8807 115.994 15.8807C116.489 15.8807 116.942 15.9881 117.352 16.2027C117.763 16.4081 118.071 16.7021 118.276 17.0847V13.5287H119.452V23.4688H118.388L118.346 22.3487C118.141 22.7501 117.828 23.0674 117.408 23.3007C116.988 23.5248 116.517 23.6368 115.994 23.6368ZM116.232 22.5167C116.671 22.5167 117.04 22.4047 117.338 22.1807C117.646 21.9567 117.88 21.6394 118.038 21.2287C118.197 20.8087 118.276 20.3187 118.276 19.7587C118.276 19.1801 118.197 18.6854 118.038 18.2747C117.88 17.8641 117.646 17.5514 117.338 17.3367C117.04 17.1127 116.671 17.0007 116.232 17.0007C115.579 17.0007 115.056 17.2481 114.664 17.7427C114.282 18.2281 114.09 18.9001 114.09 19.7587C114.09 20.6081 114.282 21.2801 114.664 21.7747C115.056 22.2694 115.579 22.5167 116.232 22.5167ZM128.086 23.6368C127.405 23.6368 126.808 23.4781 126.294 23.1607C125.781 22.8434 125.384 22.3954 125.104 21.8167C124.824 21.2287 124.684 20.5427 124.684 19.7587C124.684 18.9654 124.824 18.2794 125.104 17.7007C125.384 17.1221 125.781 16.6741 126.294 16.3567C126.808 16.0394 127.405 15.8807 128.086 15.8807C128.768 15.8807 129.36 16.0394 129.864 16.3567C130.378 16.6741 130.774 17.1221 131.054 17.7007C131.334 18.2794 131.474 18.9654 131.474 19.7587C131.474 20.5427 131.334 21.2287 131.054 21.8167C130.774 22.3954 130.378 22.8434 129.864 23.1607C129.36 23.4781 128.768 23.6368 128.086 23.6368ZM128.086 22.5167C128.768 22.5167 129.295 22.2741 129.668 21.7887C130.051 21.2941 130.242 20.6174 130.242 19.7587C130.242 18.9001 130.051 18.2281 129.668 17.7427C129.295 17.2481 128.768 17.0007 128.086 17.0007C127.405 17.0007 126.873 17.2481 126.49 17.7427C126.108 18.2281 125.916 18.9001 125.916 19.7587C125.916 20.6174 126.108 21.2941 126.49 21.7887C126.873 22.2741 127.405 22.5167 128.086 22.5167ZM133.077 23.4688V16.0487H134.155L134.197 17.9387L134.057 17.8127C134.15 17.3741 134.314 17.0147 134.547 16.7347C134.78 16.4454 135.06 16.2307 135.387 16.0907C135.723 15.9507 136.082 15.8807 136.465 15.8807C137.034 15.8807 137.501 16.0067 137.865 16.2587C138.238 16.5107 138.514 16.8514 138.691 17.2807C138.878 17.7007 138.971 18.1721 138.971 18.6947V23.4688H137.795V19.0307C137.795 18.5734 137.739 18.1907 137.627 17.8827C137.524 17.5654 137.356 17.3274 137.123 17.1687C136.89 17.0007 136.586 16.9167 136.213 16.9167C135.644 16.9167 135.172 17.0987 134.799 17.4627C134.435 17.8174 134.253 18.3401 134.253 19.0307V23.4688H133.077ZM147.428 23.4688C146.756 23.4688 146.256 23.3148 145.93 23.0068C145.612 22.6988 145.454 22.2181 145.454 21.5647V14.3127H146.63V21.5367C146.63 21.8727 146.704 22.1061 146.854 22.2367C147.003 22.3674 147.232 22.4327 147.54 22.4327H148.604V23.4688H147.428ZM144.362 17.0847V16.0487H148.604V17.0847H144.362ZM150.112 23.4688V13.5287H151.288V17.6867L151.148 17.6587C151.242 17.2481 151.4 16.9121 151.624 16.6507C151.848 16.3894 152.124 16.1981 152.45 16.0768C152.777 15.9461 153.136 15.8807 153.528 15.8807C154.06 15.8807 154.508 16.0021 154.872 16.2447C155.246 16.4781 155.526 16.8094 155.712 17.2387C155.908 17.6587 156.006 18.1441 156.006 18.6947V23.4688H154.83V19.0307C154.83 18.3121 154.7 17.7801 154.438 17.4347C154.186 17.0894 153.799 16.9167 153.276 16.9167C152.679 16.9167 152.198 17.0987 151.834 17.4627C151.47 17.8267 151.288 18.3541 151.288 19.0447V23.4688H150.112ZM160.981 23.6368C160.281 23.6368 159.674 23.4781 159.161 23.1607C158.657 22.8434 158.265 22.3954 157.985 21.8167C157.714 21.2287 157.579 20.5427 157.579 19.7587C157.579 18.9747 157.714 18.2934 157.985 17.7147C158.265 17.1361 158.652 16.6881 159.147 16.3707C159.651 16.0441 160.244 15.8807 160.925 15.8807C161.569 15.8807 162.138 16.0347 162.633 16.3427C163.128 16.6414 163.51 17.0801 163.781 17.6587C164.061 18.2374 164.201 18.9421 164.201 19.7728V20.1227H158.811C158.858 20.9161 159.068 21.5134 159.441 21.9147C159.824 22.3161 160.337 22.5167 160.981 22.5167C161.466 22.5167 161.863 22.4047 162.171 22.1807C162.488 21.9474 162.708 21.6441 162.829 21.2707L164.089 21.3687C163.893 22.0314 163.52 22.5774 162.969 23.0068C162.428 23.4268 161.765 23.6368 160.981 23.6368ZM158.811 19.0867H162.913C162.857 18.3681 162.647 17.8407 162.283 17.5047C161.928 17.1687 161.476 17.0007 160.925 17.0007C160.356 17.0007 159.884 17.1781 159.511 17.5327C159.147 17.8781 158.914 18.3961 158.811 19.0867Z" fill="#010211"/>
<path d="M56.5675 46.4688L61.6875 32.2687H64.8675L69.9875 46.4688H67.2675L66.0875 43.1087H60.4675L59.2875 46.4688H56.5675ZM61.2275 40.8887H65.3275L63.2875 34.8887L61.2275 40.8887ZM71.3766 49.4688V35.7887H73.8366L73.8966 38.0687L73.6366 37.9487C73.9032 37.1621 74.3366 36.5687 74.9366 36.1687C75.5499 35.7554 76.2632 35.5487 77.0766 35.5487C78.0899 35.5487 78.9299 35.8021 79.5966 36.3087C80.2766 36.8154 80.7832 37.4887 81.1166 38.3287C81.4499 39.1687 81.6166 40.1021 81.6166 41.1287C81.6166 42.1554 81.4432 43.0887 81.0966 43.9287C80.7632 44.7687 80.2566 45.4421 79.5766 45.9487C78.9099 46.4554 78.0699 46.7088 77.0566 46.7088C76.5232 46.7088 76.0232 46.6154 75.5566 46.4287C75.1032 46.2421 74.7099 45.9754 74.3766 45.6287C74.0566 45.2821 73.8299 44.8754 73.6966 44.4087L73.9366 44.2087V49.4688H71.3766ZM76.4566 44.6287C77.2299 44.6287 77.8366 44.3221 78.2766 43.7087C78.7299 43.0821 78.9566 42.2221 78.9566 41.1287C78.9566 40.0354 78.7299 39.1821 78.2766 38.5687C77.8366 37.9421 77.2299 37.6287 76.4566 37.6287C75.9366 37.6287 75.4899 37.7621 75.1166 38.0287C74.7432 38.2821 74.4499 38.6687 74.2366 39.1887C74.0366 39.7087 73.9366 40.3554 73.9366 41.1287C73.9366 41.9021 74.0366 42.5487 74.2366 43.0687C74.4366 43.5887 74.7232 43.9821 75.0966 44.2487C75.4832 44.5021 75.9366 44.6287 76.4566 44.6287ZM83.6031 49.4688V35.7887H86.0631L86.1231 38.0687L85.8631 37.9487C86.1298 37.1621 86.5631 36.5687 87.1631 36.1687C87.7765 35.7554 88.4898 35.5487 89.3031 35.5487C90.3165 35.5487 91.1565 35.8021 91.8231 36.3087C92.5031 36.8154 93.0098 37.4887 93.3431 38.3287C93.6765 39.1687 93.8431 40.1021 93.8431 41.1287C93.8431 42.1554 93.6698 43.0887 93.3231 43.9287C92.9898 44.7687 92.4831 45.4421 91.8031 45.9487C91.1365 46.4554 90.2965 46.7088 89.2831 46.7088C88.7498 46.7088 88.2498 46.6154 87.7831 46.4287C87.3298 46.2421 86.9365 45.9754 86.6031 45.6287C86.2831 45.2821 86.0565 44.8754 85.9231 44.4087L86.1631 44.2087V49.4688H83.6031ZM88.6831 44.6287C89.4565 44.6287 90.0631 44.3221 90.5031 43.7087C90.9565 43.0821 91.1831 42.2221 91.1831 41.1287C91.1831 40.0354 90.9565 39.1821 90.5031 38.5687C90.0631 37.9421 89.4565 37.6287 88.6831 37.6287C88.1631 37.6287 87.7165 37.7621 87.3431 38.0287C86.9698 38.2821 86.6765 38.6687 86.4631 39.1887C86.2631 39.7087 86.1631 40.3554 86.1631 41.1287C86.1631 41.9021 86.2631 42.5487 86.4631 43.0687C86.6631 43.5887 86.9498 43.9821 87.3231 44.2487C87.7098 44.5021 88.1631 44.6287 88.6831 44.6287ZM106.312 46.7888C105.138 46.7888 104.125 46.5821 103.272 46.1687C102.418 45.7554 101.745 45.1821 101.252 44.4487C100.772 43.7021 100.492 42.8354 100.412 41.8487L103.052 41.6887C103.132 42.3021 103.305 42.8221 103.572 43.2487C103.852 43.6754 104.218 44.0021 104.672 44.2287C105.138 44.4421 105.698 44.5487 106.352 44.5487C106.912 44.5487 107.385 44.4821 107.772 44.3487C108.172 44.2021 108.472 43.9954 108.672 43.7287C108.885 43.4487 108.992 43.1087 108.992 42.7087C108.992 42.3487 108.905 42.0287 108.732 41.7487C108.558 41.4554 108.225 41.1954 107.732 40.9687C107.238 40.7287 106.505 40.4954 105.532 40.2687C104.358 40.0021 103.418 39.7021 102.712 39.3687C102.005 39.0221 101.492 38.5954 101.172 38.0887C100.852 37.5687 100.692 36.9221 100.692 36.1487C100.692 35.3221 100.898 34.5954 101.312 33.9688C101.725 33.3287 102.312 32.8354 103.072 32.4887C103.832 32.1287 104.745 31.9487 105.812 31.9487C106.945 31.9487 107.905 32.1554 108.692 32.5687C109.478 32.9687 110.098 33.5221 110.552 34.2287C111.005 34.9354 111.285 35.7487 111.392 36.6687L108.772 36.7887C108.705 36.2687 108.545 35.8154 108.292 35.4287C108.052 35.0421 107.718 34.7421 107.292 34.5287C106.878 34.3021 106.372 34.1887 105.772 34.1887C105.025 34.1887 104.432 34.3621 103.992 34.7088C103.565 35.0421 103.352 35.4887 103.352 36.0487C103.352 36.4354 103.438 36.7554 103.612 37.0087C103.798 37.2621 104.125 37.4821 104.592 37.6687C105.058 37.8421 105.712 38.0287 106.552 38.2287C107.818 38.4954 108.825 38.8354 109.572 39.2487C110.318 39.6621 110.852 40.1421 111.172 40.6887C111.492 41.2354 111.652 41.8621 111.652 42.5687C111.652 43.4354 111.432 44.1887 110.992 44.8287C110.552 45.4554 109.932 45.9421 109.132 46.2887C108.332 46.6221 107.392 46.7888 106.312 46.7888ZM117.942 46.4688C116.875 46.4688 116.088 46.2221 115.582 45.7287C115.088 45.2354 114.842 44.4621 114.842 43.4087V33.2887H117.402V43.1687C117.402 43.6621 117.508 44.0087 117.722 44.2087C117.935 44.3954 118.268 44.4887 118.722 44.4887H120.222V46.4688H117.942ZM113.162 37.7687V35.7887H120.222V37.7687H113.162ZM126.563 46.7088C125.51 46.7088 124.583 46.4821 123.783 46.0287C122.997 45.5621 122.383 44.9087 121.943 44.0687C121.517 43.2287 121.303 42.2487 121.303 41.1287C121.303 39.9954 121.517 39.0154 121.943 38.1887C122.383 37.3487 122.997 36.7021 123.783 36.2487C124.583 35.7821 125.51 35.5487 126.563 35.5487C127.617 35.5487 128.537 35.7821 129.323 36.2487C130.11 36.7021 130.717 37.3487 131.143 38.1887C131.583 39.0154 131.803 39.9954 131.803 41.1287C131.803 42.2487 131.583 43.2287 131.143 44.0687C130.717 44.9087 130.11 45.5621 129.323 46.0287C128.537 46.4821 127.617 46.7088 126.563 46.7088ZM126.563 44.6287C127.39 44.6287 128.023 44.3221 128.463 43.7087C128.917 43.0954 129.143 42.2354 129.143 41.1287C129.143 40.0354 128.917 39.1821 128.463 38.5687C128.023 37.9421 127.39 37.6287 126.563 37.6287C125.737 37.6287 125.097 37.9421 124.643 38.5687C124.19 39.1821 123.963 40.0354 123.963 41.1287C123.963 42.2354 124.19 43.0954 124.643 43.7087C125.097 44.3221 125.737 44.6287 126.563 44.6287ZM133.779 46.4688V35.7887H136.179L136.279 38.7487L136.059 38.7087C136.219 37.6821 136.519 36.9421 136.959 36.4887C137.412 36.0221 138.026 35.7887 138.799 35.7887H139.779V37.9887H138.779C138.232 37.9887 137.779 38.0687 137.419 38.2287C137.059 38.3887 136.786 38.6421 136.599 38.9887C136.426 39.3221 136.339 39.7621 136.339 40.3087V46.4688H133.779ZM145.782 46.7088C144.715 46.7088 143.788 46.4821 143.002 46.0287C142.215 45.5621 141.608 44.9087 141.182 44.0687C140.755 43.2287 140.542 42.2487 140.542 41.1287C140.542 40.0087 140.755 39.0354 141.182 38.2087C141.608 37.3687 142.208 36.7154 142.982 36.2487C143.768 35.7821 144.682 35.5487 145.722 35.5487C146.735 35.5487 147.622 35.7754 148.382 36.2287C149.155 36.6821 149.748 37.3354 150.162 38.1887C150.575 39.0421 150.782 40.0687 150.782 41.2687V41.8487H143.202C143.255 42.7821 143.508 43.4887 143.962 43.9688C144.428 44.4354 145.042 44.6687 145.802 44.6687C146.375 44.6687 146.848 44.5421 147.222 44.2887C147.608 44.0221 147.875 43.6554 148.022 43.1887L150.642 43.3487C150.348 44.3887 149.768 45.2087 148.902 45.8088C148.048 46.4088 147.008 46.7088 145.782 46.7088ZM143.202 40.1287H148.142C148.088 39.2621 147.842 38.6221 147.402 38.2087C146.962 37.7821 146.402 37.5687 145.722 37.5687C145.042 37.5687 144.475 37.7887 144.022 38.2287C143.582 38.6687 143.308 39.3021 143.202 40.1287Z" fill="#010211"/>
</svg>
